<?xml version="1.0" encoding="utf-8"?>
<!-- Generator: Adobe Illustrator 24.3.0, SVG Export Plug-In . SVG Version: 6.00 Build 0)  -->
<svg version="1.1" id="Vrstva_1" xmlns="http://www.w3.org/2000/svg" xmlns:xlink="http://www.w3.org/1999/xlink" x="0px" y="0px"
	 viewBox="0 0 300 150" style="enable-background:new 0 0 300 150;" xml:space="preserve">
<style type="text/css">
	.st0{fill:#00A258;}
</style>
<g>
	<path class="st0" d="M164.15,54.54c2.72,1.72,4.74,4.06,6.04,7.02c0,0,0-6.45,0-7.34c0-1.3,0.86-2.29,2.11-2.29
		c0.57,0,7.44,0,10.79,0c1.3,0,2.21,0.98,2.21,2.29c0,0.78,0,37.74,0,46.64c0,1.24-0.78,1.94-1.96,1.94c-3.63,0-10.62,0-11.25,0
		c-1.24,0-1.9-0.74-1.9-1.99c0-1.24,0-7.63,0-7.63c-1.3,2.96-3.32,5.3-6.04,7.02c-2.73,1.72-5.98,2.58-9.78,2.58
		c-4.09,0-7.75-1.02-10.97-3.07c-3.23-2.04-5.78-4.99-7.64-8.84c-1.87-3.85-2.8-8.35-2.8-13.51c0-5.21,0.93-9.73,2.8-13.55
		c1.87-3.82,4.41-6.75,7.64-8.8c3.23-2.04,6.89-3.07,10.97-3.07C158.17,51.96,161.43,52.82,164.15,54.54z M151.4,68.49
		c-1.99,2.13-2.98,5.1-2.98,8.89c0,3.79,0.99,6.75,2.98,8.89c1.98,2.13,4.61,3.2,7.86,3.2c3.2,0,5.82-1.1,7.86-3.29
		c2.04-2.19,3.07-5.12,3.07-8.8c0-3.73-1.02-6.68-3.07-8.84c-2.04-2.16-4.67-3.24-7.86-3.24C156.01,65.29,153.38,66.36,151.4,68.49z
		"/>
	<path class="st0" d="M218.31,54.72c2.59-1.54,5.36-2.41,8.32-2.62c0.47-0.03,1.41,0.3,1.41,1.28c0,0.98,0,13.35,0,13.82
		c0,0.48-0.34,1.11-1.54,1.11c-1.2,0-2.81,0-2.81,0c-4.03,0-7.15,0.86-9.37,2.58c-2.22,1.72-3.33,4.62-3.33,8.71
		c0,0,0,18.84,0,20.44c0,1.6-1.33,2.72-3.11,2.72c-3.41,0-8.49,0-9.19,0c-1.72,0-2.9-0.98-2.9-2.66c0-9.97,0-45.14,0-46.01
		c0-1.02,0.98-2.17,2.27-2.17s8.89,0,10.36,0c1.69,0,2.57,1.15,2.57,2.3c0,1.16,0,7.69,0,7.69
		C212.88,58.89,215.32,56.49,218.31,54.72z"/>
	<path class="st0" d="M272.92,57.25c3.85,3.14,6.44,7.33,7.75,12.56c0.16,0.64,0.25,1.97-1.39,1.97c-1.64,0-11.51,0-12.71,0
		c-1.2,0-1.81-1.01-1.99-1.48c-0.54-1.44-1.38-2.6-2.49-3.5c-1.48-1.18-3.35-1.78-5.6-1.78c-2.67,0-4.86,1.05-6.58,3.15
		c-1.72,2.1-2.58,5.17-2.58,9.2c0,4.03,0.86,7.09,2.58,9.2c1.72,2.1,3.91,3.15,6.58,3.15c2.25,0,4.12-0.59,5.6-1.78
		c1.11-0.89,1.94-2.04,2.48-3.47c0.18-0.47,1.02-1.51,2.13-1.51c1.11,0,11.25,0,12.4,0c1.16,0,1.77,1.16,1.63,1.72
		c-1.29,5.35-3.9,9.62-7.81,12.81c-4.32,3.52-9.69,5.29-16.08,5.29c-4.86,0-9.17-1.02-12.93-3.07c-3.76-2.04-6.71-4.99-8.84-8.84
		c-2.13-3.85-3.2-8.35-3.2-13.51c0-5.21,1.05-9.73,3.15-13.55c2.1-3.82,5.05-6.75,8.84-8.8c3.79-2.04,8.12-3.07,12.97-3.07
		C263.23,51.96,268.59,53.73,272.92,57.25z"/>
</g>
<path class="st0" d="M113.29,77.58c-3.68-7-9.11-12.97-15.53-17.55c-13.21-9.41-30.95-11.61-46.11-5.95
	C36.62,59.7,24.96,72.39,20.7,87.87c-0.64,2.33-1.1,4.71-1.39,7.11c-0.67,5.16,3.09,8.69,8.65,8.69c2.76,0,5,0,7.76,0
	c10.52,0,21.04,0,31.56,0c10.79,0,21.59,0,32.38,0c4.15,0,6.79,0,10.94,0c4.29,0,8.92-1.8,8.11-8.87
	C118.01,88.52,116.25,83.21,113.29,77.58z M74.33,56.48c0.24,0.03,0.47,0.06,0.71,0.08c0.06,0.01,0.11,0.01,0.15,0.02
	c0.03,0.01,0.08,0.01,0.13,0.02c0.55,0.08,1.09,0.17,1.64,0.27c1.92,0.35,3.82,0.83,5.69,1.41c0.89,0.28,1.76,0.59,2.63,0.92
	c0.22,0.08,0.43,0.17,0.65,0.25c0.03,0.01,0.3,0.12,0.4,0.16c0.44,0.19,0.88,0.38,1.32,0.58c1.73,0.8,3.41,1.71,5.04,2.71
	c0.78,0.48,1.54,0.98,2.28,1.51c0.37,0.26,0.74,0.53,1.11,0.8c0.05,0.03,0.08,0.06,0.11,0.08c0.02,0.02,0.05,0.04,0.09,0.07
	c0.24,0.18,0.48,0.37,0.71,0.56c1.48,1.18,2.88,2.47,4.2,3.82c0.64,0.65,1.25,1.32,1.85,2c0.3,0.34,0.59,0.69,0.88,1.04
	c0.14,0.18,0.29,0.35,0.43,0.53c0.05,0.07,0.11,0.14,0.16,0.21c0.02,0.03,0.06,0.08,0.12,0.16c2.31,3.03,4.24,6.35,5.76,9.85
	c0.02,0.04,0.1,0.23,0.15,0.35c0.07,0.17,0.14,0.33,0.2,0.5c0.17,0.43,0.33,0.86,0.49,1.3c0.27,0.73,0.51,1.48,0.74,2.22
	c-7.64-8.21-16.78-15.26-27.23-18.91c-4.05-4.91-8.83-9.2-14.11-12.77c0.28,0.01,0.56,0.02,0.84,0.03
	C72.41,56.29,73.37,56.38,74.33,56.48z M26.77,95.88c0.07-0.1,0.13-0.19,0.2-0.29c0.17-0.25,0.35-0.5,0.53-0.75
	c0.08-0.11,0.41-0.55,0.5-0.67c1.78-2.31,3.75-4.48,5.83-6.52c1.2-1.17,2.44-2.3,3.72-3.38c0.59-0.5,1.18-0.98,1.79-1.45
	c0.08-0.06,0.26-0.2,0.3-0.23c0.17-0.13,0.34-0.26,0.51-0.38c0.4-0.3,0.81-0.59,1.22-0.88c0.28-0.2,0.57-0.4,0.85-0.59
	c0.5,0.29,1,0.59,1.48,0.9c0.37,0.24,0.74,0.49,1.11,0.74c0.14,0.1,0.29,0.2,0.43,0.3c0,0,0.39,0.29,0.42,0.31
	c1.3,1,2.51,2.11,3.64,3.3c0.11,0.12,0.22,0.24,0.33,0.36c-6.24,1.78-12.32,4.13-18.17,6.91C29.89,94.29,28.32,95.06,26.77,95.88z
	 M47.14,77.67c1.24-0.69,2.51-1.34,3.8-1.94c0.41-0.19,0.83-0.38,1.25-0.56c0.04-0.02,0.25-0.11,0.36-0.15
	c0.16-0.06,0.32-0.13,0.48-0.19c0.93-0.37,1.87-0.71,2.82-1.02c1.09-0.36,2.19-0.68,3.29-0.96c0.07,0.06,0.15,0.12,0.22,0.18
	c0.42,0.33,0.83,0.67,1.23,1.02c1.36,1.16,2.66,2.39,3.89,3.68c0.55,0.58,1.08,1.17,1.6,1.77c0.25,0.29,0.5,0.59,0.74,0.89
	c0.12,0.15,0.24,0.29,0.35,0.44c0.01,0.01,0.01,0.01,0.02,0.02c0.05,0.06,0.09,0.12,0.14,0.18c0.53,0.7,1.04,1.42,1.53,2.15
	c-4.59,0.33-9.14,1.02-13.62,2.03C52.95,82.29,50.2,79.75,47.14,77.67z M65.82,71.69c0.39-0.03,0.78-0.06,1.17-0.08
	c2.06-0.12,4.13-0.08,6.19,0.1c1.97,0.17,3.76,0.48,5.99,1.02c0.83,0.2,1.65,0.43,2.46,0.68c0.51,0.67,1.01,1.34,1.49,2.03
	c0.94,1.33,1.82,2.69,2.64,4.09c0.77,1.3,1.49,2.62,2.16,3.97c0.13,0.26,0.25,0.52,0.38,0.77c-4.42-0.86-8.94-1.28-13.45-1.3
	c-1.53-2.64-3.32-5.1-5.23-7.33C68.43,74.25,67.16,72.93,65.82,71.69z M77.45,88.24c2.11,0.09,4.22,0.26,6.31,0.54
	c0.03,0,0.05,0.01,0.07,0.01c0.15,0.02,0.29,0.04,0.44,0.07c0.32,0.05,0.63,0.1,0.95,0.15c0.63,0.1,1.26,0.22,1.9,0.34
	c1.21,0.23,2.41,0.51,3.61,0.82c0.74,2.14,1.36,4.33,1.84,6.54c0.13,0.58,0.24,1.17,0.35,1.76c-4.36,0-8.73,0-13.09,0
	C79.64,94.97,78.78,91.52,77.45,88.24z M91.87,79.76c-0.46-0.88-0.94-1.74-1.44-2.6c1.66,0.91,3.26,1.9,4.82,2.96
	c1.66,1.12,2.77,1.96,4.19,3.11c1.57,1.27,3.07,2.61,4.54,3.99c1.63,1.54,3.2,3.15,4.72,4.81c-4.4-2.59-9.08-4.67-14-6.17
	C93.85,83.76,92.88,81.71,91.87,79.76z M51.7,59.63c0.04-0.01,0.38-0.16,0.43-0.18c0.21-0.09,0.43-0.17,0.65-0.25
	c0.5-0.19,1.01-0.38,1.53-0.55c1.84-0.64,3.73-1.14,5.63-1.55c0.5-0.11,1.01-0.2,1.52-0.29c1.98,1.04,3.9,2.16,5.77,3.37
	c1.88,1.22,3.3,2.27,4.79,3.47c1.22,0.98,2.4,2.02,3.54,3.1c-1.59-0.22-3.2-0.36-4.84-0.42c-3.51-0.11-6.98,0.2-10.37,0.88
	c-3.48-2.5-7.22-4.64-11.08-6.46c0.05-0.02,0.1-0.05,0.14-0.07C50.16,60.31,50.93,59.96,51.7,59.63z M27.58,83.77
	c0.07-0.16,0.13-0.31,0.2-0.47c0.18-0.42,0.38-0.84,0.57-1.26c0.42-0.9,0.88-1.78,1.36-2.65c0.92-1.67,1.95-3.27,3.06-4.81
	c0.13-0.19,0.27-0.37,0.4-0.55c0.03-0.04,0.06-0.08,0.08-0.11c0.02-0.02,0.04-0.05,0.07-0.09c0.28-0.36,0.56-0.71,0.85-1.07
	c0.62-0.76,1.28-1.5,1.95-2.22c1.29-1.39,2.67-2.69,4.11-3.92c0.35-0.29,0.7-0.58,1.05-0.87c0.03-0.02,0.19-0.15,0.29-0.23
	c0.14-0.11,0.29-0.22,0.44-0.33c0.58-0.43,1.17-0.85,1.77-1.25c0.07,0.04,0.13,0.07,0.2,0.11c3.34,1.44,6.58,3.09,9.68,4.99
	c-9.06,3.15-17.34,8.76-24.09,15.48c-1.23,1.23-2.44,2.51-3.6,3.85c0.42-1.42,0.9-2.82,1.45-4.2
	C27.43,84.14,27.55,83.86,27.58,83.77z M33.22,98.46c0.64-0.31,1.28-0.62,1.93-0.92c1.18-0.55,2.38-1.08,3.58-1.58
	c0.04-0.02,0.12-0.05,0.18-0.08c0.08-0.03,0.16-0.07,0.25-0.1c0.32-0.13,0.63-0.26,0.95-0.39c0.71-0.28,1.42-0.56,2.13-0.83
	c3.53-1.34,7.13-2.5,10.78-3.46c0.33,0.54,0.65,1.09,0.95,1.65c0.27,0.49,0.51,0.99,0.75,1.49c0.11,0.23,0.22,0.47,0.33,0.71
	c0.05,0.12,0.11,0.24,0.16,0.36c0.31,0.77,0.59,1.55,0.84,2.34c0.08,0.27,0.16,0.53,0.24,0.8c-5.96,0-11.92,0-17.87,0
	C36.68,98.46,34.95,98.46,33.22,98.46z M61.63,98.46c-0.49-2.9-1.79-5.78-3.17-8.34c-0.05-0.08-0.09-0.17-0.14-0.25
	c1.06-0.22,2.13-0.42,3.2-0.6c0.86-0.15,1.73-0.28,2.59-0.4c0.13-0.02,0.26-0.04,0.39-0.05c0.02,0,0.38-0.05,0.45-0.06
	c0.52-0.06,1.03-0.12,1.55-0.17c1.74-0.18,3.48-0.29,5.23-0.36c0.19,0.4,0.37,0.8,0.54,1.2c0.06,0.15,0.18,0.44,0.22,0.54
	c0.12,0.29,0.22,0.59,0.33,0.88c0.68,1.85,1.19,3.77,1.53,5.71c0.04,0.23,0.08,0.47,0.11,0.7c0.02,0.14,0.08,0.66,0.09,0.84
	c0.01,0.12,0.02,0.24,0.03,0.36c-1.27,0-2.53,0-3.8,0C67.74,98.46,64.68,98.46,61.63,98.46z M98.18,98.46
	c-0.27-2.14-0.72-4.28-1.32-6.39c0.68,0.25,1.35,0.51,2.03,0.79c-0.02,0,0.6,0.26,0.67,0.29c0.32,0.14,0.63,0.28,0.94,0.42
	c0.63,0.29,1.26,0.59,1.88,0.9c1.35,0.67,2.68,1.4,3.98,2.17c0.97,0.58,1.94,1.18,2.87,1.81c-2.3,0-4.59,0-6.89,0
	C100.96,98.46,99.57,98.46,98.18,98.46z"/>
</svg>
