<svg xmlns="http://www.w3.org/2000/svg" xmlns:xlink="http://www.w3.org/1999/xlink" width="230" height="332.295" viewBox="0 0 230 332.295">
  <defs>
    <linearGradient id="linear-gradient" y1="0.5" x2="1" y2="0.5" gradientUnits="objectBoundingBox">
      <stop offset="0" stop-color="#121212"/>
      <stop offset="0.257" stop-color="#333"/>
      <stop offset="0.694" stop-color="#59595b"/>
      <stop offset="0.985" stop-color="#121212"/>
    </linearGradient>
    <linearGradient id="linear-gradient-2" y1="0.5" x2="1" y2="0.5" gradientUnits="objectBoundingBox">
      <stop offset="0" stop-color="#fff"/>
      <stop offset="0.19" stop-color="#e6e6e6"/>
      <stop offset="0.694" stop-color="#cfcfcf"/>
      <stop offset="1" stop-color="#cfcfcf"/>
    </linearGradient>
    <linearGradient id="linear-gradient-3" x1="-103.579" x2="-103.579" y2="1" gradientUnits="objectBoundingBox">
      <stop offset="0" stop-color="#fff"/>
      <stop offset="0.34" stop-color="#e6e6e6"/>
      <stop offset="0.75" stop-color="#cfcfcf"/>
      <stop offset="1" stop-color="#cfcfcf"/>
    </linearGradient>
    <linearGradient id="linear-gradient-4" x1="-102.195" y1="0" x2="-102.195" y2="1" xlink:href="#linear-gradient-3"/>
    <linearGradient id="linear-gradient-5" x1="-100.798" y1="0" x2="-100.798" y2="1" xlink:href="#linear-gradient-3"/>
    <linearGradient id="linear-gradient-6" x1="-101.36" y1="0" x2="-101.36" y2="1" xlink:href="#linear-gradient-3"/>
    <linearGradient id="linear-gradient-7" x1="-102.191" y1="0" x2="-102.191" y2="1" xlink:href="#linear-gradient-3"/>
    <linearGradient id="linear-gradient-8" x1="-98.016" y1="0" x2="-98.016" y2="1" xlink:href="#linear-gradient-3"/>
    <linearGradient id="linear-gradient-9" x1="-102.101" y1="0" x2="-102.101" y2="1" xlink:href="#linear-gradient-3"/>
    <linearGradient id="linear-gradient-10" x1="-59.516" y1="0" x2="-59.516" y2="1" xlink:href="#linear-gradient-3"/>
    <linearGradient id="linear-gradient-11" x1="-98.02" y1="0" x2="-98.02" y2="1" xlink:href="#linear-gradient-3"/>
    <linearGradient id="linear-gradient-12" x1="-100.802" y1="0" x2="-100.802" y2="1" xlink:href="#linear-gradient-3"/>
    <linearGradient id="linear-gradient-13" x1="-99.405" y1="0" x2="-99.405" y2="1" xlink:href="#linear-gradient-3"/>
    <linearGradient id="linear-gradient-14" x1="-98.026" y1="0" x2="-98.026" y2="1" xlink:href="#linear-gradient-3"/>
    <linearGradient id="linear-gradient-15" x1="-96.634" y1="0" x2="-96.634" y2="1" xlink:href="#linear-gradient-3"/>
    <linearGradient id="linear-gradient-16" x1="-112.803" y1="0" x2="-112.803" y2="1" xlink:href="#linear-gradient-3"/>
    <linearGradient id="linear-gradient-17" x1="-96.629" y1="0" x2="-96.629" y2="1" xlink:href="#linear-gradient-3"/>
    <linearGradient id="linear-gradient-18" x1="-99.419" y1="0" x2="-99.419" y2="1" xlink:href="#linear-gradient-3"/>
    <linearGradient id="linear-gradient-19" x1="-103.494" y1="0" x2="-103.494" y2="1" xlink:href="#linear-gradient-3"/>
    <linearGradient id="linear-gradient-20" x1="-104.887" y1="0" x2="-104.887" y2="1" xlink:href="#linear-gradient-3"/>
    <linearGradient id="linear-gradient-21" x1="-124.312" y1="0" x2="-124.312" y2="1" xlink:href="#linear-gradient-3"/>
    <linearGradient id="linear-gradient-22" x1="-104.972" y1="0" x2="-104.972" y2="1" xlink:href="#linear-gradient-3"/>
    <linearGradient id="linear-gradient-23" x1="-103.587" y1="0" x2="-103.587" y2="1" xlink:href="#linear-gradient-3"/>
    <linearGradient id="linear-gradient-24" x1="-99.408" y1="0" x2="-99.408" y2="1" xlink:href="#linear-gradient-3"/>
    <linearGradient id="linear-gradient-25" x1="-100.796" y1="0" x2="-100.796" y2="1" xlink:href="#linear-gradient-3"/>
    <linearGradient id="linear-gradient-26" x1="-102.185" y1="0" x2="-102.185" y2="1" xlink:href="#linear-gradient-3"/>
    <linearGradient id="linear-gradient-27" x1="-108.329" x2="-108.329" y2="1" gradientUnits="objectBoundingBox">
      <stop offset="0" stop-color="#a6a9ab"/>
      <stop offset="0.057" stop-color="#8c8e8f"/>
      <stop offset="0.121" stop-color="#777878"/>
      <stop offset="0.18" stop-color="#6a6a6a"/>
      <stop offset="0.232" stop-color="#666"/>
      <stop offset="0.62" stop-color="#555"/>
      <stop offset="0.876" stop-color="#3b3b3b"/>
      <stop offset="1" stop-color="#2e2e2e"/>
    </linearGradient>
    <linearGradient id="linear-gradient-28" x1="-106.881" y1="0" x2="-106.881" y2="1" xlink:href="#linear-gradient-27"/>
    <linearGradient id="linear-gradient-29" x1="-105.421" y1="0" x2="-105.421" y2="1" xlink:href="#linear-gradient-27"/>
    <linearGradient id="linear-gradient-30" x1="-106.032" y1="0" x2="-106.032" y2="1" xlink:href="#linear-gradient-27"/>
    <linearGradient id="linear-gradient-31" x1="-106.879" y1="0" x2="-106.879" y2="1" xlink:href="#linear-gradient-27"/>
    <linearGradient id="linear-gradient-32" x1="-102.508" y1="0" x2="-102.508" y2="1" xlink:href="#linear-gradient-27"/>
    <linearGradient id="linear-gradient-33" x1="-106.783" y1="0" x2="-106.783" y2="1" xlink:href="#linear-gradient-27"/>
    <linearGradient id="linear-gradient-34" x1="-61.113" y1="0" x2="-61.113" y2="1" xlink:href="#linear-gradient-27"/>
    <linearGradient id="linear-gradient-35" x1="-102.517" y1="0" x2="-102.517" y2="1" xlink:href="#linear-gradient-27"/>
    <linearGradient id="linear-gradient-36" x1="-105.425" y1="0" x2="-105.425" y2="1" xlink:href="#linear-gradient-27"/>
    <linearGradient id="linear-gradient-37" x1="-103.964" y1="0" x2="-103.964" y2="1" xlink:href="#linear-gradient-27"/>
    <linearGradient id="linear-gradient-38" x1="-102.523" y1="0" x2="-102.523" y2="1" xlink:href="#linear-gradient-27"/>
    <linearGradient id="linear-gradient-39" x1="-101.065" y1="0" x2="-101.065" y2="1" xlink:href="#linear-gradient-27"/>
    <linearGradient id="linear-gradient-40" x1="-118.964" y1="0" x2="-118.964" y2="1" xlink:href="#linear-gradient-27"/>
    <linearGradient id="linear-gradient-41" x1="-101.055" y1="0" x2="-101.055" y2="1" xlink:href="#linear-gradient-27"/>
    <linearGradient id="linear-gradient-42" x1="-103.98" y1="0" x2="-103.98" y2="1" xlink:href="#linear-gradient-27"/>
    <linearGradient id="linear-gradient-43" x1="-108.239" y1="0" x2="-108.239" y2="1" xlink:href="#linear-gradient-27"/>
    <linearGradient id="linear-gradient-44" x1="-109.696" y1="0" x2="-109.696" y2="1" xlink:href="#linear-gradient-27"/>
    <linearGradient id="linear-gradient-45" x1="-131.029" x2="-131.029" y2="1" gradientUnits="objectBoundingBox">
      <stop offset="0.006" stop-color="#f0f0f1"/>
      <stop offset="0.062" stop-color="#f0c3c4"/>
      <stop offset="0.124" stop-color="#f09899"/>
      <stop offset="0.185" stop-color="#f07677"/>
      <stop offset="0.243" stop-color="#f05e5e"/>
      <stop offset="0.295" stop-color="#f05050"/>
      <stop offset="0.339" stop-color="#f14b4b"/>
      <stop offset="0.482" stop-color="#e53c3c"/>
      <stop offset="0.715" stop-color="#d62828"/>
      <stop offset="0.881" stop-color="#c01420"/>
      <stop offset="1" stop-color="#b60b1d"/>
    </linearGradient>
    <linearGradient id="linear-gradient-46" x1="-109.787" y1="0" x2="-109.787" y2="1" xlink:href="#linear-gradient-45"/>
    <linearGradient id="linear-gradient-47" x1="-108.339" y1="0" x2="-108.339" y2="1" xlink:href="#linear-gradient-27"/>
    <linearGradient id="linear-gradient-48" x1="-103.968" y1="0" x2="-103.968" y2="1" xlink:href="#linear-gradient-27"/>
    <linearGradient id="linear-gradient-49" x1="-105.415" y1="0" x2="-105.415" y2="1" xlink:href="#linear-gradient-27"/>
    <linearGradient id="linear-gradient-50" x1="-106.873" y1="0" x2="-106.873" y2="1" xlink:href="#linear-gradient-27"/>
  </defs>
  <g id="Animace" transform="translate(-11937.801 -6493)">
    <g id="Group_150" data-name="Group 150" transform="translate(11937.801 6687.023)">
      <g id="Group_87" data-name="Group 87">
        <path id="Path_466" data-name="Path 466" d="M12177.055,7544.433c.2.131.407.261.6.4.163.119.309.242.461.365.171.138.347.273.5.415.1.088.182.18.274.269a9.392,9.392,0,0,1,.7.751c.091.11.182.222.266.333.142.19.268.382.387.574.075.123.156.245.222.368s.116.233.171.35c-.043.092-.071.185-.118.277-.085.165-.2.327-.3.49-.08.129-.147.261-.237.389-.121.174-.271.342-.411.513-.094.112-.173.229-.273.339-.156.171-.338.337-.514.5-.109.1-.207.213-.324.316-.207.18-.439.353-.67.525-.109.083-.205.17-.318.251q-.533.378-1.141.729l-69.135,39.914a18.159,18.159,0,0,1-2.52,1.189c-.028.011-.052.027-.08.038-.1.039-.22.061-.323.1a22.83,22.83,0,0,1-2.294.7c-.158.039-.313.079-.473.115a25.884,25.884,0,0,1-2.655.456c-.136.017-.271.032-.409.046-.909.1-1.825.146-2.743.153-.146,0-.291,0-.438,0-.93-.008-1.86-.056-2.778-.154-.165-.017-.324-.047-.487-.067-.681-.086-1.349-.21-2.009-.345-.23-.048-.47-.067-.7-.12a19.949,19.949,0,0,1-5.447-2.1l-120.23-69.869c-.4-.233-.776-.477-1.128-.726-.033-.025-.062-.052-.1-.076-.069-.052-.132-.105-.2-.157-.232-.178-.471-.354-.681-.539-.032-.028-.057-.06-.091-.088-.087-.079-.16-.161-.243-.24-.167-.161-.342-.319-.492-.483-.088-.1-.156-.2-.238-.3-.018-.02-.033-.04-.049-.061-.132-.162-.274-.322-.389-.487-.083-.12-.145-.241-.219-.362a.092.092,0,0,1-.009-.017c-.1-.164-.213-.327-.3-.494-.035-.067-.054-.136-.087-.2.042-.091.07-.183.117-.273.08-.155.185-.307.279-.461s.158-.281.255-.419c.109-.155.245-.306.369-.459.106-.131.2-.264.315-.394.15-.163.325-.319.492-.479.117-.113.221-.229.347-.339.2-.177.432-.345.655-.515.114-.087.215-.177.334-.263q.535-.376,1.144-.73l69.134-39.914a18.034,18.034,0,0,1,2.515-1.187c.132-.051.271-.088.405-.137a22.58,22.58,0,0,1,2.293-.7c.156-.039.311-.079.471-.115a26.059,26.059,0,0,1,2.655-.456c.136-.017.271-.031.409-.046.907-.095,1.824-.146,2.743-.152.148,0,.295,0,.442,0,.933.007,1.862.056,2.781.153.163.019.321.047.484.067.683.086,1.352.21,2.014.346.566.116,1.109.259,1.654.412.524.147,1.051.292,1.552.473.215.078.427.157.639.243a17.485,17.485,0,0,1,2.308,1.095l120.229,69.869C12176.652,7544.16,12176.848,7544.3,12177.055,7544.433Z" transform="translate(-11954.953 -7464.155)" fill="#282828"/>
        <g id="Group_86" data-name="Group 86" transform="translate(1.198 53.337)">
          <path id="Path_467" data-name="Path 467" d="M11943.625,7695.606v0h0Z" transform="translate(-11943.625 -7695.604)" fill="#181818"/>
        </g>
        <path id="Path_468" data-name="Path 468" d="M12167.787,7518.166a.057.057,0,0,1,0,.014c0-2.5-1.639-5-4.924-6.909l-124.072-72.1c-6.59-3.83-17.316-3.837-23.949-.008l-72.041,41.593c-3.553,2.05-5.191,4.786-4.957,7.474-.014-.162-.041-.323-.041-.485l.016,4.972v.023c0,.158.025.314.041.473.016.178.027.356.061.535a.279.279,0,0,1,.01.041c.025.132.064.262.1.392.047.17.088.339.146.507.01.024.021.049.031.072.041.115.1.229.145.342.076.177.152.353.246.527.018.033.043.067.063.1.051.094.107.186.166.277.123.2.252.4.4.59.035.05.076.1.115.146.053.066.1.131.158.2a9.72,9.72,0,0,0,.717.773c.061.057.115.115.176.172.037.033.066.068.1.1.162.146.342.286.52.429.156.125.3.252.473.374.191.138.4.271.609.405.145.094.285.189.438.281.072.043.131.09.205.133l124.072,72.1c.154.09.313.178.471.263s.328.174.5.258l.092.045c.211.1.432.2.648.3.039.018.074.035.111.051s.059.028.088.04l.047.021c.332.141.668.273,1.012.4l.186.067c.154.056.316.1.473.156l.086.028.047.016.223.075c.324.1.652.194.982.281l.074.019.074.02.068.018.094.023.16.039.145.034.141.033q.372.085.75.16c.117.022.234.038.35.061l.1.017c.076.015.152.026.229.039.213.037.422.079.635.109.385.058.773.1,1.162.142l.139.017.045.006.063.007c.166.016.334.023.5.037-.164-.012-.332-.023-.5-.039v0c.184.019.371.031.557.045a.553.553,0,0,0-.059,0l.063,0,.152.011h0c.211.014.422.024.635.035-.211-.011-.42-.021-.627-.035.207.015.416.035.627.046.057,0,.113,0,.17,0,.084,0,.17,0,.256,0q.867.031,1.738.008c.1,0,.2,0,.3,0,.055,0,.109,0,.166,0,.094,0,.188-.007.281-.013.281-.014.564-.035.844-.057.025,0,.055,0,.08,0a.111.111,0,0,1,.025,0l.049,0,.422-.038c.35-.035.7-.077,1.045-.125l.088-.013.02,0,.023,0c.094-.013.188-.025.279-.04v-.1h0v.1c.4-.062.793-.131,1.188-.209.063-.012.121-.025.184-.038h.006v-.084h0l0,.085h0l.02-.007v0l-.02,0,.014,0q.683-.142,1.342-.317c.072-.02.145-.038.215-.059.047-.013.09-.027.137-.04l.057-.017.064-.02c.174-.05.35-.1.521-.153h0c.158-.05.313-.1.469-.151v-.028h0v.028c.281-.1.553-.2.828-.309l.174-.064.053-.021c.051-.02.1-.036.152-.056q.375-.154.738-.318l.17-.079h0l.232-.111c.375-.182.74-.374,1.092-.579l72.043-41.593c3.334-1.926,5-4.453,4.99-6.977Zm-5.242,3.81a11.893,11.893,0,0,1-3.369,2.747l-69.133,39.915a18.128,18.128,0,0,1-2.521,1.188c-.027.012-.051.027-.078.038-.1.039-.221.061-.326.1a22.337,22.337,0,0,1-2.293.7c-.156.04-.311.08-.473.115a26.1,26.1,0,0,1-2.652.457l-.412.046c-.906.095-1.822.146-2.742.152-.148,0-.293,0-.437,0-.932-.008-1.861-.056-2.779-.154-.164-.018-.324-.046-.488-.067-.68-.086-1.346-.209-2.01-.346-.227-.046-.469-.065-.693-.118a22.427,22.427,0,0,1-2.506-.765c-.215-.078-.426-.157-.637-.241a18.008,18.008,0,0,1-2.3-1.093l-120.23-69.871q-.6-.35-1.129-.726c-.033-.023-.061-.05-.094-.074-.072-.053-.131-.106-.2-.158-.234-.178-.473-.354-.682-.539-.033-.028-.059-.06-.09-.088-.088-.079-.162-.16-.246-.239-.166-.161-.342-.32-.49-.485-.09-.1-.156-.2-.24-.3a.558.558,0,0,0-.037-.047l-.008-.012-.008-.008c-.061-.075-.115-.149-.178-.223l.059.071c-.092-.108-.184-.218-.262-.33.059.087.135.172.2.259-.068-.087-.145-.172-.2-.26-.084-.118-.145-.241-.221-.362l-.006-.01.006.011s-.006-.009-.01-.017c-.1-.165-.211-.327-.3-.5-.031-.065-.053-.133-.084-.2.041-.091.072-.183.117-.272.078-.156.186-.308.279-.461s.16-.282.256-.42c.107-.155.242-.306.367-.458.105-.131.2-.265.318-.394.148-.163.324-.32.488-.479.119-.112.223-.229.35-.339.2-.176.432-.345.654-.516.113-.086.215-.177.336-.261q.53-.378,1.141-.73l69.135-39.914a18.022,18.022,0,0,1,2.514-1.187c.131-.051.273-.089.406-.137a22.449,22.449,0,0,1,2.291-.7c.158-.039.314-.079.471-.115a26.208,26.208,0,0,1,2.658-.455c.137-.017.271-.031.408-.046.906-.095,1.826-.146,2.742-.153.15,0,.295,0,.443,0,.932.008,1.861.056,2.779.154.166.017.322.047.486.067.682.085,1.352.21,2.016.346.564.116,1.107.259,1.652.411.525.147,1.049.292,1.551.473.217.079.43.158.641.243a17.66,17.66,0,0,1,2.307,1.1l.3.173.875.51,1.418.823,1.92,1.116q1.2.694,2.391,1.389l2.822,1.642,3.223,1.872,3.584,2.082q1.954,1.137,3.91,2.272,2.1,1.22,4.2,2.441l4.459,2.589,4.676,2.719q2.432,1.412,4.859,2.825,2.5,1.455,5.01,2.911,2.561,1.488,5.123,2.977l5.2,3.021q2.622,1.522,5.24,3.046t5.25,3.05l5.217,3.032,5.152,2.994q2.528,1.469,5.053,2.937l4.916,2.857q2.373,1.377,4.744,2.756l4.537,2.637,4.293,2.5q2.007,1.167,4.014,2.333,1.852,1.074,3.7,2.15,1.676.973,3.352,1.946l2.963,1.724,2.543,1.478c.7.4,1.391.809,2.088,1.212l1.594.928a30.293,30.293,0,0,1,3.105,1.982C12162.271,7518.346,12164,7520.148,12162.545,7521.976Z" transform="translate(-11937.801 -7436.292)" fill="#181818"/>
      </g>
      <g id="Group_96" data-name="Group 96" transform="translate(8.395 3.699)">
        <g id="Group_95" data-name="Group 95" style="isolation: isolate">
          <g id="Group_88" data-name="Group 88" transform="translate(43.043 44.135)">
            <path id="Path_469" data-name="Path 469" d="M12187.879,7668.848l0,2.181,6.564,3.814,3.436.914a1.11,1.11,0,0,0,.01-1.814l-8.756-5.088Z" transform="translate(-12187.879 -7668.848)" fill="#2b2b2b"/>
          </g>
          <g id="Group_89" data-name="Group 89" transform="translate(41.443 50.415)">
            <path id="Path_470" data-name="Path 470" d="M12180.1,7703.943l1.527,2.017,9.852-5.688-3.475-.892Z" transform="translate(-12180.098 -7699.38)" fill="#2b2b2b"/>
          </g>
          <g id="Group_90" data-name="Group 90" transform="translate(30.708 51.254)">
            <path id="Path_471" data-name="Path 471" d="M12127.912,7703.459l0,.735,8.756,5.089a4.729,4.729,0,0,0,3.131,0l-1.553-2-6.564-3.815Z" transform="translate(-12127.908 -7703.459)" fill="#2b2b2b"/>
          </g>
          <g id="Group_91" data-name="Group 91">
            <path id="Path_472" data-name="Path 472" d="M12099.25,7475.819a7.113,7.113,0,0,0-3.642-4.237l-25.986-15.1a17.655,17.655,0,0,0-7.307-2.127,22.372,22.372,0,0,0-4.958.136c-.405.058-.808.126-1.2.206a16.268,16.268,0,0,0-4.891,1.777l-68.821,39.734c-3.5,2.02-4.6,4.9-3.3,7.457a8.052,8.052,0,0,0,3.252,3.177l25.987,15.1c5.054,2.938,13.258,2.938,18.346,0l68.822-39.734a8.5,8.5,0,0,0,3.085-2.825,5.434,5.434,0,0,0,.361-.7A4.481,4.481,0,0,0,12099.25,7475.819Zm-5.666,6.12-67.278,38.842c-4.945,2.855-12.94,2.855-17.868-.007l-24.386-14.172c-4.913-2.855-4.887-7.487.059-10.342l67.277-38.843c4.945-2.855,12.941-2.855,17.855,0l24.386,14.172C12098.555,7474.452,12098.529,7479.083,12093.584,7481.939Z" transform="translate(-11978.615 -7454.276)" fill="url(#linear-gradient)"/>
          </g>
          <g id="Group_92" data-name="Group 92" transform="translate(32.387 57.85)">
            <path id="Path_473" data-name="Path 473" d="M12136.854,7735.984a1.149,1.149,0,0,0-.012,2.174,4.141,4.141,0,0,0,3.764.007,1.154,1.154,0,0,0,.014-2.187A4.145,4.145,0,0,0,12136.854,7735.984Z" transform="translate(-12136.071 -7735.529)" fill="#2b2b2b"/>
          </g>
          <path id="Path_474" data-name="Path 474" d="M12106.952,7480.488l-22.827-13.266c-4.822-2.8-12.664-2.8-17.519,0l-65.316,37.711c-4.842,2.795-4.881,7.344-.058,10.147l22.826,13.265c4.824,2.8,12.677,2.8,17.519,0l65.316-37.711C12111.748,7487.832,12111.774,7483.291,12106.952,7480.488Z" transform="translate(-11993.725 -7462.89)" fill="#c0e4ef"/>
          <g id="Group_93" data-name="Group 93" transform="translate(1.77 1)">
            <path id="Path_475" data-name="Path 475" d="M12104.017,7479.576a4.657,4.657,0,0,0-.229-.691,5.863,5.863,0,0,0-1.076-1.662,8.149,8.149,0,0,0-1-.925,9.6,9.6,0,0,0-.808-.575c-.144-.093-.292-.185-.447-.273l-24.385-14.172a16.056,16.056,0,0,0-5.323-1.84,19.609,19.609,0,0,0-12.532,1.84l-67.277,38.843a7.039,7.039,0,0,0-3.59,4.121,4.325,4.325,0,0,0-.119.7,4.192,4.192,0,0,0-.006.7,4.618,4.618,0,0,0,.5,1.732,7.805,7.805,0,0,0,3.16,3.089l24.388,14.172c.152.089.311.176.468.26q.482.252.992.471a16.334,16.334,0,0,0,1.592.578,19.123,19.123,0,0,0,2.866.63q.593.083,1.194.134c.4.034.8.056,1.208.067a21.969,21.969,0,0,0,2.419-.066q.6-.05,1.193-.134a16.606,16.606,0,0,0,5.934-1.932l67.277-38.843a7.4,7.4,0,0,0,3.438-3.651c.029-.074.055-.148.078-.223A4.329,4.329,0,0,0,12104.017,7479.576Zm-5.4,6.3-65.316,37.711c-4.842,2.8-12.7,2.8-17.519,0l-22.826-13.265c-4.823-2.8-4.785-7.352.057-10.147l65.317-37.711c4.854-2.8,12.7-2.8,17.52,0l22.824,13.264C12103.5,7478.536,12103.473,7483.078,12098.618,7485.881Z" transform="translate(-11987.218 -7459.136)" fill="url(#linear-gradient-2)"/>
          </g>
          <g id="Group_94" data-name="Group 94" transform="translate(53.081 30.819)">
            <path id="Path_476" data-name="Path 476" d="M12240.3,7645.317c-4.816,2.78-4.828,7.285-.056,10.058l67.046,38.963c4.771,2.773,12.534,2.773,17.35-.008l67.771-39.127c4.814-2.78,4.839-7.276.068-10.05l-67.046-38.963c-4.772-2.773-12.547-2.781-17.364,0Z" transform="translate(-12236.68 -7604.107)" fill="#454545"/>
          </g>
        </g>
      </g>
      <g id="Group_97" data-name="Group 97" transform="translate(68.783 37.974)" style="mix-blend-mode: multiply;isolation: isolate">
        <path id="Path_477" data-name="Path 477" d="M12739.831,7794.5l7.275,4.228a2.138,2.138,0,0,1-.02,3.982l-7.32,4.228a6,6,0,0,1-2.937.713,5.939,5.939,0,0,1-2.93-.715l-7.271-4.228a2.349,2.349,0,0,1-1.352-1.984,2.376,2.376,0,0,1,1.369-2l7.318-4.227A6.389,6.389,0,0,1,12739.831,7794.5Z" transform="translate(-12632.086 -7758.224)" fill="url(#linear-gradient-3)"/>
        <path id="Path_478" data-name="Path 478" d="M12661.834,7749.168l7.271,4.228a2.138,2.138,0,0,1-.018,3.982l-7.32,4.227a6.377,6.377,0,0,1-5.865,0l-7.273-4.229a2.137,2.137,0,0,1,.018-3.981l7.322-4.227A6.385,6.385,0,0,1,12661.834,7749.168Z" transform="translate(-12570.13 -7722.22)" fill="url(#linear-gradient-4)"/>
        <path id="Path_479" data-name="Path 479" d="M12569.964,7707.668l7.32-4.227a6.386,6.386,0,0,1,5.867,0l7.271,4.227a2.348,2.348,0,0,1,1.352,1.985,2.381,2.381,0,0,1-1.369,2l-7.32,4.228a6.392,6.392,0,0,1-5.867,0l-7.271-4.228a2.354,2.354,0,0,1-1.352-1.985A2.382,2.382,0,0,1,12569.964,7707.668Z" transform="translate(-12507.631 -7685.899)" fill="url(#linear-gradient-5)"/>
        <path id="Path_480" data-name="Path 480" d="M12592.516,7627.783l-7.293,4.214a6.43,6.43,0,0,1-5.826-.011l-7.236-4.2a2.127,2.127,0,0,1,.018-3.967l1.391-.8c4.855-2.8,12.734-2.806,17.561,0l1.393.81a2.125,2.125,0,0,1-.006,3.959Z" transform="translate(-12509.392 -7620.909)" fill="url(#linear-gradient-6)"/>
        <path id="Path_481" data-name="Path 481" d="M12668.91,7666.321l-7.322,4.227a6.381,6.381,0,0,1-5.865,0l-7.273-4.227a2.137,2.137,0,0,1,.02-3.982l7.32-4.226a6.364,6.364,0,0,1,5.865,0l7.271,4.228a2.349,2.349,0,0,1,1.352,1.985A2.374,2.374,0,0,1,12668.91,7666.321Z" transform="translate(-12569.987 -7649.892)" fill="url(#linear-gradient-7)"/>
        <path id="Path_482" data-name="Path 482" d="M12423.14,7807.235a5.949,5.949,0,0,1-2.93-.714l-7.275-4.228a2.138,2.138,0,0,1,.021-3.983l7.318-4.224a6.365,6.365,0,0,1,5.867,0l7.273,4.227a2.137,2.137,0,0,1-.018,3.981l-7.322,4.228A6,6,0,0,1,12423.14,7807.235Z" transform="translate(-12382.917 -7757.897)" fill="url(#linear-gradient-8)"/>
        <path id="Path_483" data-name="Path 483" d="M12644,7935.382a2.381,2.381,0,0,1,1.371-2l7.322-4.227a6.38,6.38,0,0,1,5.863,0l7.287,4.234a2.14,2.14,0,0,1-.02,3.982l-7.318,4.228a6.026,6.026,0,0,1-2.937.7,5.954,5.954,0,0,1-2.93-.7l-7.287-4.234A2.359,2.359,0,0,1,12644,7935.382Z" transform="translate(-12567.526 -7865.188)" fill="url(#linear-gradient-9)"/>
        <path id="Path_484" data-name="Path 484" d="M12491.447,7934.512l7.318-4.227a6.389,6.389,0,0,1,5.867,0l22.939,13.334a2.137,2.137,0,0,1-.016,3.98l-7.322,4.227a6.357,6.357,0,0,1-5.865,0l-22.941-13.331a2.358,2.358,0,0,1-1.352-1.984A2.383,2.383,0,0,1,12491.447,7934.512Z" transform="translate(-12445.262 -7866.084)" fill="url(#linear-gradient-10)"/>
        <path id="Path_485" data-name="Path 485" d="M12413.449,7889.183l7.32-4.227a6.354,6.354,0,0,1,5.863,0l7.275,4.227a2.136,2.136,0,0,1-.02,3.98l-7.32,4.227a5.967,5.967,0,0,1-2.936.715,5.906,5.906,0,0,1-2.928-.717l-7.275-4.227a2.137,2.137,0,0,1,.02-3.98Z" transform="translate(-12383.31 -7830.076)" fill="url(#linear-gradient-11)"/>
        <path id="Path_486" data-name="Path 486" d="M12577.466,7794.495a6.38,6.38,0,0,1,5.863,0l7.273,4.228a2.138,2.138,0,0,1-.018,3.982l-7.32,4.228a6.385,6.385,0,0,1-5.867,0l-7.275-4.228a2.139,2.139,0,0,1,.021-3.982Z" transform="translate(-12507.773 -7758.224)" fill="url(#linear-gradient-12)"/>
        <path id="Path_487" data-name="Path 487" d="M12501.644,7761.922a5.919,5.919,0,0,1-2.93-.717l-7.273-4.225a2.139,2.139,0,0,1,.02-3.983l7.318-4.228a6.391,6.391,0,0,1,5.867,0l7.273,4.227a2.138,2.138,0,0,1-.018,3.982l-7.322,4.226A5.967,5.967,0,0,1,12501.644,7761.922Z" transform="translate(-12445.273 -7721.905)" fill="url(#linear-gradient-13)"/>
        <path id="Path_488" data-name="Path 488" d="M12435.587,7709.838a2.374,2.374,0,0,1-1.369,2l-7.32,4.228a5.992,5.992,0,0,1-2.936.712,5.928,5.928,0,0,1-2.93-.714l-7.275-4.228a2.35,2.35,0,0,1-1.35-1.986,2.374,2.374,0,0,1,1.369-2l7.32-4.228a6.387,6.387,0,0,1,5.865,0l7.273,4.227A2.353,2.353,0,0,1,12435.587,7709.838Z" transform="translate(-12383.569 -7686.046)" fill="url(#linear-gradient-14)"/>
        <path id="Path_489" data-name="Path 489" d="M12357.084,7755.157a2.378,2.378,0,0,1-1.37,2l-7.32,4.227a5.978,5.978,0,0,1-2.937.715,5.91,5.91,0,0,1-2.929-.717l-7.275-4.227a2.138,2.138,0,0,1,.019-3.981l7.322-4.226a6.356,6.356,0,0,1,5.864,0l7.275,4.227A2.353,2.353,0,0,1,12357.084,7755.157Z" transform="translate(-12321.214 -7722.039)" fill="url(#linear-gradient-15)"/>
        <path id="Path_490" data-name="Path 490" d="M12276.011,7794.763l1.389-.8a6.37,6.37,0,0,1,5.84,0l7.235,4.205a2.126,2.126,0,0,1-.007,3.959l-7.295,4.213a6.462,6.462,0,0,1-5.84,0l-1.392-.81c-2.413-1.4-3.74-3.3-3.737-5.359S12273.559,7796.179,12276.011,7794.763Z" transform="translate(-12272.204 -7757.805)" fill="url(#linear-gradient-16)"/>
        <path id="Path_491" data-name="Path 491" d="M12334.766,7843.461l7.322-4.228a6.39,6.39,0,0,1,5.865,0l7.273,4.228a2.137,2.137,0,0,1-.02,3.982l-7.322,4.227a6.377,6.377,0,0,1-5.863,0l-7.273-4.227a2.354,2.354,0,0,1-1.352-1.983A2.379,2.379,0,0,1,12334.766,7843.461Z" transform="translate(-12320.811 -7793.761)" fill="url(#linear-gradient-17)"/>
        <path id="Path_492" data-name="Path 492" d="M12514.093,7664.514a2.379,2.379,0,0,1-1.371,2l-7.32,4.227a6.381,6.381,0,0,1-5.865,0l-7.275-4.227a2.357,2.357,0,0,1-1.35-1.983,2.382,2.382,0,0,1,1.369-2l7.322-4.228a6.384,6.384,0,0,1,5.865,0l7.273,4.227A2.356,2.356,0,0,1,12514.093,7664.514Z" transform="translate(-12445.926 -7650.042)" fill="url(#linear-gradient-18)"/>
        <path id="Path_493" data-name="Path 493" d="M12722.51,7890.049a2.377,2.377,0,0,1,1.367-2l7.322-4.227a6.365,6.365,0,0,1,5.867,0l7.287,4.233a2.14,2.14,0,0,1-.02,3.982l-7.322,4.228a6.471,6.471,0,0,1-5.867,0l-7.283-4.235A2.354,2.354,0,0,1,12722.51,7890.049Z" transform="translate(-12629.888 -7829.18)" fill="url(#linear-gradient-19)"/>
        <path id="Path_494" data-name="Path 494" d="M12801.015,7844.732a2.367,2.367,0,0,1,1.367-2l7.32-4.228a6.389,6.389,0,0,1,5.867,0l7.287,4.235a2.14,2.14,0,0,1-.02,3.982l-7.322,4.225a6.455,6.455,0,0,1-5.863,0l-7.289-4.233A2.351,2.351,0,0,1,12801.015,7844.732Z" transform="translate(-12692.245 -7793.186)" fill="url(#linear-gradient-20)"/>
        <path id="Path_495" data-name="Path 495" d="M12879.309,7799.341a2.379,2.379,0,0,1,1.373-2l7.373-4.257a6.385,6.385,0,0,1,5.877.011l1.393.81c2.449,1.421,3.8,3.35,3.793,5.424s-1.363,4.017-3.836,5.444l-1.414.817a6.5,6.5,0,0,1-5.893,0l-7.312-4.25A2.354,2.354,0,0,1,12879.309,7799.341Z" transform="translate(-12754.435 -7757.101)" fill="url(#linear-gradient-21)"/>
        <path id="Path_496" data-name="Path 496" d="M12825.589,7757.374l-7.32,4.228a6.013,6.013,0,0,1-2.936.713,5.929,5.929,0,0,1-2.93-.716l-7.275-4.227a2.356,2.356,0,0,1-1.35-1.983,2.385,2.385,0,0,1,1.369-2l7.322-4.225a6.357,6.357,0,0,1,5.863,0l7.275,4.227a2.137,2.137,0,0,1-.02,3.98Z" transform="translate(-12694.439 -7722.216)" fill="url(#linear-gradient-22)"/>
        <path id="Path_497" data-name="Path 497" d="M12747.6,7712.057l-7.32,4.228a5.993,5.993,0,0,1-2.936.714,5.926,5.926,0,0,1-2.932-.717l-7.271-4.227a2.137,2.137,0,0,1,.018-3.981l7.32-4.227a6.384,6.384,0,0,1,5.865,0l7.273,4.228a2.349,2.349,0,0,1,1.352,1.984A2.378,2.378,0,0,1,12747.6,7712.057Z" transform="translate(-12632.489 -7686.221)" fill="url(#linear-gradient-23)"/>
        <path id="Path_498" data-name="Path 498" d="M12501.823,7852.974a5.918,5.918,0,0,1-2.93-.716l-7.275-4.228a2.348,2.348,0,0,1-1.35-1.984,2.382,2.382,0,0,1,1.369-2l7.32-4.226a6.383,6.383,0,0,1,5.867,0l7.271,4.227a2.136,2.136,0,0,1-.02,3.98l-7.318,4.228A5.982,5.982,0,0,1,12501.823,7852.974Z" transform="translate(-12445.415 -7794.229)" fill="url(#linear-gradient-24)"/>
        <path id="Path_499" data-name="Path 499" d="M12590.076,7893.349l-7.322,4.228a5.987,5.987,0,0,1-2.936.713,5.926,5.926,0,0,1-2.928-.715l-7.275-4.228a2.352,2.352,0,0,1-1.35-1.984,2.376,2.376,0,0,1,1.369-2l7.32-4.226a6.368,6.368,0,0,1,5.867,0l7.273,4.227a2.351,2.351,0,0,1,1.35,1.986A2.379,2.379,0,0,1,12590.076,7893.349Z" transform="translate(-12507.37 -7830.222)" fill="url(#linear-gradient-25)"/>
        <path id="Path_500" data-name="Path 500" d="M12668.58,7848.034l-7.322,4.226a6.369,6.369,0,0,1-5.863,0l-7.275-4.226a2.139,2.139,0,0,1,.02-3.983l7.32-4.226a6.383,6.383,0,0,1,5.867,0l7.273,4.227a2.137,2.137,0,0,1-.02,3.982Z" transform="translate(-12569.726 -7794.229)" fill="url(#linear-gradient-26)"/>
      </g>
      <g id="Group_122" data-name="Group 122" transform="translate(68.994 38.158)">
        <g id="Group_98" data-name="Group 98" transform="translate(93.191 35.563)">
          <path id="Path_501" data-name="Path 501" d="M12727.42,7799.572c-1.48.854-1.488,2.248-.018,3.1l7.273,4.227a5.919,5.919,0,0,0,5.357,0l7.32-4.227c1.48-.854,1.488-2.249.018-3.1l-7.273-4.227a5.915,5.915,0,0,0-5.355,0Z" transform="translate(-12726.305 -7794.705)" fill="url(#linear-gradient-27)"/>
        </g>
        <g id="Group_99" data-name="Group 99" transform="translate(77.149 26.24)">
          <path id="Path_502" data-name="Path 502" d="M12649.424,7754.246c-1.48.854-1.488,2.248-.018,3.1l7.273,4.228a5.915,5.915,0,0,0,5.355,0l7.322-4.227c1.479-.854,1.486-2.248.016-3.1l-7.271-4.228a5.925,5.925,0,0,0-5.357,0Z" transform="translate(-12648.309 -7749.378)" fill="url(#linear-gradient-28)"/>
        </g>
        <g id="Group_100" data-name="Group 100" transform="translate(60.964 16.835)">
          <path id="Path_503" data-name="Path 503" d="M12570.741,7708.519c-1.48.854-1.488,2.248-.018,3.1l7.271,4.228a5.919,5.919,0,0,0,5.357,0l7.32-4.228c1.48-.854,1.488-2.248.018-3.1l-7.273-4.227a5.915,5.915,0,0,0-5.355,0Z" transform="translate(-12569.626 -7703.651)" fill="url(#linear-gradient-29)"/>
        </g>
        <g id="Group_101" data-name="Group 101" transform="translate(61.42)">
          <path id="Path_504" data-name="Path 504" d="M12572.955,7624.645c-1.48.854-1.488,2.233-.018,3.087l7.234,4.205a5.885,5.885,0,0,0,5.318.008l7.295-4.213c1.467-.847,1.461-2.232,0-3.08l-1.393-.809c-4.67-2.714-12.34-2.721-17.053,0Z" transform="translate(-12571.84 -7621.805)" fill="url(#linear-gradient-30)"/>
        </g>
        <g id="Group_102" data-name="Group 102" transform="translate(77.112 7.512)">
          <path id="Path_505" data-name="Path 505" d="M12649.246,7663.2c-1.48.854-1.488,2.247-.018,3.1l7.273,4.226a5.919,5.919,0,0,0,5.357,0l7.318-4.226c1.482-.854,1.49-2.248.02-3.1l-7.273-4.227a5.919,5.919,0,0,0-5.357,0Z" transform="translate(-12648.131 -7658.328)" fill="url(#linear-gradient-31)"/>
        </g>
        <g id="Group_103" data-name="Group 103" transform="translate(28.669 35.481)">
          <path id="Path_506" data-name="Path 506" d="M12413.729,7799.169c-1.479.854-1.486,2.249-.018,3.1l7.273,4.227a5.919,5.919,0,0,0,5.357,0l7.32-4.227c1.479-.854,1.486-2.249.02-3.1l-7.275-4.227a5.925,5.925,0,0,0-5.357,0Z" transform="translate(-12412.614 -7794.302)" fill="url(#linear-gradient-32)"/>
        </g>
        <g id="Group_104" data-name="Group 104" transform="translate(76.475 63.262)">
          <path id="Path_507" data-name="Path 507" d="M12646.148,7934.235c-1.479.855-1.488,2.249-.018,3.1l7.285,4.234a5.943,5.943,0,0,0,5.357,0l7.32-4.227c1.48-.854,1.475-2.256.018-3.1l-7.285-4.233a5.915,5.915,0,0,0-5.355,0Z" transform="translate(-12645.033 -7929.369)" fill="url(#linear-gradient-33)"/>
        </g>
        <g id="Group_105" data-name="Group 105" transform="translate(44.814 63.494)">
          <path id="Path_508" data-name="Path 508" d="M12492.219,7935.365c-1.479.854-1.488,2.248-.018,3.1l22.941,13.333a5.919,5.919,0,0,0,5.357,0l7.32-4.227c1.48-.854,1.488-2.249.018-3.1l-22.941-13.332a5.919,5.919,0,0,0-5.357,0Z" transform="translate(-12491.104 -7930.498)" fill="url(#linear-gradient-34)"/>
        </g>
        <g id="Group_106" data-name="Group 106" transform="translate(28.771 54.171)">
          <path id="Path_509" data-name="Path 509" d="M12414.226,7890.039c-1.48.854-1.488,2.249-.018,3.1l7.271,4.227a5.925,5.925,0,0,0,5.357,0l7.322-4.227c1.479-.854,1.486-2.249.016-3.1l-7.273-4.227a5.919,5.919,0,0,0-5.357,0Z" transform="translate(-12413.11 -7885.171)" fill="url(#linear-gradient-35)"/>
        </g>
        <g id="Group_107" data-name="Group 107" transform="translate(61.001 35.563)">
          <path id="Path_510" data-name="Path 510" d="M12570.919,7799.57c-1.479.854-1.488,2.249-.018,3.1l7.273,4.227a5.915,5.915,0,0,0,5.355,0l7.322-4.227c1.479-.854,1.486-2.249.018-3.1l-7.273-4.227a5.921,5.921,0,0,0-5.355,0Z" transform="translate(-12569.804 -7794.704)" fill="url(#linear-gradient-36)"/>
        </g>
        <g id="Group_108" data-name="Group 108" transform="translate(44.817 26.158)">
          <path id="Path_511" data-name="Path 511" d="M12492.232,7753.845c-1.479.854-1.486,2.248-.016,3.1l7.273,4.227a5.915,5.915,0,0,0,5.355,0l7.32-4.227c1.482-.854,1.49-2.248.02-3.1l-7.273-4.228a5.925,5.925,0,0,0-5.357,0Z" transform="translate(-12491.118 -7748.977)" fill="url(#linear-gradient-37)"/>
        </g>
        <g id="Group_109" data-name="Group 109" transform="translate(28.839 16.872)">
          <path id="Path_512" data-name="Path 512" d="M12414.555,7708.7c-1.48.855-1.488,2.249-.018,3.1l7.273,4.227a5.915,5.915,0,0,0,5.355,0l7.322-4.227c1.479-.854,1.486-2.248.016-3.1l-7.271-4.226a5.919,5.919,0,0,0-5.357,0Z" transform="translate(-12413.439 -7703.834)" fill="url(#linear-gradient-38)"/>
        </g>
        <g id="Group_110" data-name="Group 110" transform="translate(12.691 26.195)">
          <path id="Path_513" data-name="Path 513" d="M12336.047,7754.026c-1.479.854-1.486,2.248-.017,3.1l7.274,4.227a5.915,5.915,0,0,0,5.355,0l7.321-4.227c1.479-.854,1.487-2.248.017-3.1l-7.273-4.228a5.921,5.921,0,0,0-5.355,0Z" transform="translate(-12334.933 -7749.159)" fill="url(#linear-gradient-39)"/>
        </g>
        <g id="Group_111" data-name="Group 111" transform="translate(0 35.45)">
          <path id="Path_514" data-name="Path 514" d="M12276.785,7795.6c-4.713,2.72-4.737,7.172-.069,9.885l1.394.81a5.908,5.908,0,0,0,5.329,0l7.3-4.212c1.465-.847,1.46-2.233,0-3.08l-7.235-4.2a5.862,5.862,0,0,0-5.33,0Z" transform="translate(-12273.232 -7794.156)" fill="url(#linear-gradient-40)"/>
        </g>
        <g id="Group_112" data-name="Group 112" transform="translate(12.587 44.766)">
          <path id="Path_515" data-name="Path 515" d="M12335.54,7844.313c-1.479.854-1.487,2.247-.019,3.1l7.274,4.228a5.915,5.915,0,0,0,5.355,0l7.322-4.228c1.479-.854,1.486-2.248.016-3.1l-7.272-4.228a5.917,5.917,0,0,0-5.356,0Z" transform="translate(-12334.426 -7839.444)" fill="url(#linear-gradient-41)"/>
        </g>
        <g id="Group_113" data-name="Group 113" transform="translate(44.986 7.55)">
          <path id="Path_516" data-name="Path 516" d="M12493.06,7663.376c-1.48.854-1.488,2.249-.018,3.1l7.271,4.227a5.916,5.916,0,0,0,5.357,0l7.32-4.227c1.48-.854,1.488-2.248.018-3.1l-7.273-4.227a5.915,5.915,0,0,0-5.355,0Z" transform="translate(-12491.944 -7658.509)" fill="url(#linear-gradient-42)"/>
        </g>
        <g id="Group_114" data-name="Group 114" transform="translate(92.622 53.939)">
          <path id="Path_517" data-name="Path 517" d="M12724.65,7888.911c-1.479.854-1.486,2.249-.016,3.1l7.285,4.235a5.943,5.943,0,0,0,5.357,0l7.32-4.228c1.48-.854,1.475-2.256.018-3.1l-7.287-4.234a5.915,5.915,0,0,0-5.355,0Z" transform="translate(-12723.536 -7884.043)" fill="url(#linear-gradient-43)"/>
        </g>
        <g id="Group_115" data-name="Group 115" transform="translate(108.77 44.617)">
          <path id="Path_518" data-name="Path 518" d="M12803.158,7843.587c-1.48.854-1.488,2.248-.018,3.1l7.287,4.234a5.936,5.936,0,0,0,5.355,0l7.322-4.227c1.479-.854,1.475-2.255.016-3.1l-7.285-4.233a5.919,5.919,0,0,0-5.357,0Z" transform="translate(-12802.043 -7838.72)" fill="url(#linear-gradient-44)"/>
        </g>
        <g id="Group_116" data-name="Group 116" transform="translate(124.874 35.272)">
          <path id="Path_519" data-name="Path 519" d="M12881.457,7798.187c-1.48.854-1.5,2.255-.018,3.117l7.311,4.249a5.975,5.975,0,0,0,5.383,0l1.414-.817c4.764-2.751,4.777-7.239.045-9.99l-1.393-.81a5.926,5.926,0,0,0-5.371-.007Z" transform="translate(-12880.336 -7793.29)" fill="url(#linear-gradient-45)"/>
        </g>
        <g id="Group_117" data-name="Group 117" transform="translate(109.339 26.241)">
          <path id="Path_520" data-name="Path 520" d="M12805.927,7754.247c-1.48.854-1.488,2.248-.018,3.1l7.271,4.227a5.919,5.919,0,0,0,5.357,0l7.32-4.227c1.48-.854,1.488-2.248.018-3.1l-7.273-4.227a5.915,5.915,0,0,0-5.355,0Z" transform="translate(-12804.812 -7749.38)" fill="url(#linear-gradient-46)"/>
        </g>
        <g id="Group_118" data-name="Group 118" transform="translate(93.296 16.918)">
          <path id="Path_521" data-name="Path 521" d="M12727.928,7708.921c-1.479.854-1.486,2.249-.016,3.1l7.271,4.226a5.913,5.913,0,0,0,5.357,0l7.32-4.226c1.48-.854,1.486-2.249.02-3.1l-7.275-4.227a5.915,5.915,0,0,0-5.355,0Z" transform="translate(-12726.813 -7704.054)" fill="url(#linear-gradient-47)"/>
        </g>
        <g id="Group_119" data-name="Group 119" transform="translate(44.854 44.886)">
          <path id="Path_522" data-name="Path 522" d="M12492.415,7844.9c-1.479.854-1.486,2.248-.018,3.1l7.273,4.227a5.915,5.915,0,0,0,5.355,0l7.322-4.227c1.479-.854,1.486-2.248.016-3.1l-7.271-4.227a5.925,5.925,0,0,0-5.357,0Z" transform="translate(-12491.301 -7840.03)" fill="url(#linear-gradient-48)"/>
        </g>
        <g id="Group_120" data-name="Group 120" transform="translate(60.896 54.209)">
          <path id="Path_523" data-name="Path 523" d="M12570.409,7890.222c-1.48.854-1.486,2.249-.018,3.1l7.273,4.228a5.915,5.915,0,0,0,5.355,0l7.322-4.227c1.479-.854,1.486-2.249.016-3.1l-7.271-4.227a5.915,5.915,0,0,0-5.355,0Z" transform="translate(-12569.294 -7885.354)" fill="url(#linear-gradient-49)"/>
        </g>
        <g id="Group_121" data-name="Group 121" transform="translate(77.044 44.886)">
          <path id="Path_524" data-name="Path 524" d="M12648.914,7844.9c-1.479.854-1.486,2.248-.018,3.1l7.273,4.228a5.919,5.919,0,0,0,5.357,0l7.32-4.228c1.479-.854,1.488-2.248.018-3.1l-7.273-4.228a5.921,5.921,0,0,0-5.355,0Z" transform="translate(-12647.8 -7840.03)" fill="url(#linear-gradient-50)"/>
        </g>
      </g>
      <g id="Group_148" data-name="Group 148" transform="translate(69.941 38.664)">
        <g id="Group_123" data-name="Group 123" transform="translate(109.13 25.989)">
          <path id="Path_525" data-name="Path 525" d="M12809.3,7755.313a1.334,1.334,0,0,0-.014,2.518l7.184,4.174a4.794,4.794,0,0,0,4.346,0l7.232-4.174a1.329,1.329,0,0,0,.012-2.518l-7.182-4.175a4.8,4.8,0,0,0-4.348,0Z" transform="translate(-12808.397 -7750.618)" fill="#cd1212"/>
        </g>
        <g id="Group_124" data-name="Group 124" transform="translate(93.15 16.607)">
          <path id="Path_526" data-name="Path 526" d="M12731.531,7709.864a1.224,1.224,0,0,0,0,2.314l7.531,4.377a4.388,4.388,0,0,0,3.984,0l7.594-4.383a1.22,1.22,0,0,0,.014-2.309l-7.531-4.377a4.423,4.423,0,0,0-4-.008Z" transform="translate(-12730.706 -7705.006)" fill="#4d4d4d"/>
        </g>
        <g id="Group_125" data-name="Group 125" transform="translate(28.861 16.562)">
          <path id="Path_527" data-name="Path 527" d="M12418.979,7709.645a1.225,1.225,0,0,0,0,2.315l7.533,4.376a4.417,4.417,0,0,0,4,.008l7.592-4.384a1.225,1.225,0,0,0,0-2.315l-7.529-4.377a4.421,4.421,0,0,0-4-.008Z" transform="translate(-12418.153 -7704.785)" fill="#4d4d4d"/>
        </g>
        <g id="Group_126" data-name="Group 126" transform="translate(28.545 53.861)">
          <path id="Path_528" data-name="Path 528" d="M12417.434,7890.981a1.228,1.228,0,0,0,0,2.316l7.531,4.377a4.421,4.421,0,0,0,3.984,0l7.6-4.385a1.22,1.22,0,0,0,.012-2.309l-7.531-4.377a4.423,4.423,0,0,0-4-.007Z" transform="translate(-12416.614 -7886.124)" fill="#4d4d4d"/>
        </g>
        <g id="Group_127" data-name="Group 127" transform="translate(60.77 35.083)">
          <path id="Path_529" data-name="Path 529" d="M12574.108,7799.69a1.226,1.226,0,0,0,0,2.315l7.533,4.377a4.394,4.394,0,0,0,3.984,0l7.594-4.384a1.221,1.221,0,0,0,.014-2.309l-7.533-4.377a4.413,4.413,0,0,0-4-.007Z" transform="translate(-12573.285 -7794.831)" fill="#4d4d4d"/>
        </g>
        <g id="Group_128" data-name="Group 128" transform="translate(76.891 44.826)">
          <path id="Path_530" data-name="Path 530" d="M12652.491,7847.062a1.219,1.219,0,0,0-.014,2.307l7.545,4.385a4.392,4.392,0,0,0,3.986,0l7.594-4.384a1.22,1.22,0,0,0,.012-2.308l-7.545-4.385a4.394,4.394,0,0,0-3.984,0Z" transform="translate(-12651.66 -7842.199)" fill="#4d4d4d"/>
        </g>
        <g id="Group_129" data-name="Group 129" transform="translate(44.665 63.107)">
          <path id="Path_531" data-name="Path 531" d="M12495.817,7935.94a1.221,1.221,0,0,0-.014,2.308l22.709,13.2a5.378,5.378,0,0,0,4.424.239l7.58-4.376c1.1-.637.684-1.919-.412-2.556l-22.709-13.2a4.4,4.4,0,0,0-3.986,0Z" transform="translate(-12494.989 -7931.078)" fill="#4d4d4d"/>
        </g>
        <g id="Group_130" data-name="Group 130" transform="translate(76.334 62.955)">
          <path id="Path_532" data-name="Path 532" d="M12649.788,7935.2a1.22,1.22,0,0,0-.014,2.309l7.531,4.377a4.42,4.42,0,0,0,4,.007l7.594-4.384a1.225,1.225,0,0,0,0-2.315l-7.531-4.377a4.392,4.392,0,0,0-3.986,0Z" transform="translate(-12648.956 -7930.339)" fill="#4d4d4d"/>
        </g>
        <g id="Group_131" data-name="Group 131" transform="translate(60.658 53.895)">
          <path id="Path_533" data-name="Path 533" d="M12573.576,7891.15a1.219,1.219,0,0,0-.014,2.308l7.545,4.384a4.388,4.388,0,0,0,3.984,0l7.594-4.384a1.219,1.219,0,0,0,.012-2.308l-7.543-4.385a4.394,4.394,0,0,0-3.984,0Z" transform="translate(-12572.744 -7886.288)" fill="#4d4d4d"/>
        </g>
        <g id="Group_132" data-name="Group 132" transform="translate(44.707 44.575)">
          <path id="Path_534" data-name="Path 534" d="M12496.016,7845.839a1.225,1.225,0,0,0,0,2.315l7.531,4.377a4.394,4.394,0,0,0,3.984,0l7.594-4.385a1.22,1.22,0,0,0,.014-2.308l-7.531-4.377a4.423,4.423,0,0,0-4-.008Z" transform="translate(-12495.19 -7840.981)" fill="#4d4d4d"/>
        </g>
        <g id="Group_133" data-name="Group 133" transform="translate(28.601 35.166)">
          <path id="Path_535" data-name="Path 535" d="M12417.719,7800.1a1.22,1.22,0,0,0-.014,2.309l7.545,4.384a4.394,4.394,0,0,0,3.984,0l7.594-4.384a1.22,1.22,0,0,0,.014-2.309l-7.545-4.384a4.394,4.394,0,0,0-3.984,0Z" transform="translate(-12416.887 -7795.237)" fill="#4d4d4d"/>
        </g>
        <g id="Group_134" data-name="Group 134" transform="translate(44.579 25.928)">
          <path id="Path_536" data-name="Path 536" d="M12495.4,7755.186a1.22,1.22,0,0,0-.014,2.308l7.545,4.384a4.388,4.388,0,0,0,3.984,0l7.594-4.384a1.22,1.22,0,0,0,.014-2.308l-7.545-4.385a4.394,4.394,0,0,0-3.984,0Z" transform="translate(-12494.568 -7750.324)" fill="#4d4d4d"/>
        </g>
        <g id="Group_137" data-name="Group 137" transform="translate(60.811 7.283)" style="isolation: isolate">
          <g id="Group_135" data-name="Group 135" transform="translate(16.147)">
            <path id="Path_537" data-name="Path 537" d="M12652.823,7664.535a1.22,1.22,0,0,0-.014,2.309l7.545,4.384a4.394,4.394,0,0,0,3.984,0l7.594-4.384a1.22,1.22,0,0,0,.012-2.309l-7.543-4.384a4.4,4.4,0,0,0-3.986,0Z" transform="translate(-12651.991 -7659.673)" fill="#4d4d4d"/>
          </g>
          <g id="Group_136" data-name="Group 136" transform="translate(0 9.492)">
            <path id="Path_538" data-name="Path 538" d="M12574.317,7710.684a1.22,1.22,0,0,0-.012,2.309l7.543,4.383a4.388,4.388,0,0,0,3.984,0l7.6-4.383a1.221,1.221,0,0,0,.012-2.309l-7.545-4.385a4.394,4.394,0,0,0-3.984,0Z" transform="translate(-12573.486 -7705.821)" fill="#4d4d4d"/>
          </g>
        </g>
        <g id="Group_138" data-name="Group 138" transform="translate(12.544 25.8)">
          <path id="Path_539" data-name="Path 539" d="M12339.649,7754.557a1.225,1.225,0,0,0,0,2.315l7.532,4.377a4.423,4.423,0,0,0,4,.008l7.594-4.384a1.226,1.226,0,0,0,0-2.316l-7.532-4.376a4.421,4.421,0,0,0-4-.008Z" transform="translate(-12338.825 -7749.7)" fill="#4d4d4d"/>
        </g>
        <g id="Group_139" data-name="Group 139" transform="translate(0 35.194)">
          <path id="Path_540" data-name="Path 540" d="M12281.193,7796.624c-4.453,2.57-4.477,6.767-.055,9.338l1.343.779a4.328,4.328,0,0,0,3.921-.008l7.464-4.31c1.089-.63,1.095-1.648.024-2.27l-7.415-4.31a4.33,4.33,0,0,0-3.934,0Z" transform="translate(-12277.838 -7795.372)" fill="#4d4d4d"/>
        </g>
        <g id="Group_140" data-name="Group 140" transform="translate(12.354 44.367)">
          <path id="Path_541" data-name="Path 541" d="M12338.725,7844.829a1.222,1.222,0,0,0-.014,2.308l7.544,4.385a4.412,4.412,0,0,0,3.984,0l7.594-4.385a1.219,1.219,0,0,0,.014-2.308l-7.544-4.384a4.39,4.39,0,0,0-3.985,0Z" transform="translate(-12337.897 -7839.967)" fill="#4d4d4d"/>
        </g>
        <g id="Group_141" data-name="Group 141" transform="translate(44.755 7.408)">
          <path id="Path_542" data-name="Path 542" d="M12496.248,7665.143a1.226,1.226,0,0,0,0,2.316l7.531,4.376a4.424,4.424,0,0,0,4,.007l7.592-4.383a1.225,1.225,0,0,0,0-2.316l-7.531-4.377a4.423,4.423,0,0,0-4-.007Z" transform="translate(-12495.423 -7660.285)" fill="#4d4d4d"/>
        </g>
        <g id="Group_142" data-name="Group 142" transform="translate(77.002 26.184)">
          <path id="Path_543" data-name="Path 543" d="M12653.027,7756.424a1.226,1.226,0,0,0,0,2.316l7.531,4.377a4.394,4.394,0,0,0,3.984,0l7.594-4.384a1.22,1.22,0,0,0,.014-2.309l-7.531-4.377a4.423,4.423,0,0,0-4-.008Z" transform="translate(-12652.202 -7751.566)" fill="#4d4d4d"/>
        </g>
        <g id="Group_143" data-name="Group 143" transform="translate(92.313 53.633)">
          <path id="Path_544" data-name="Path 544" d="M12727.468,7889.878a1.22,1.22,0,0,0-.014,2.308l7.533,4.377a4.42,4.42,0,0,0,4,.007l7.594-4.384a1.226,1.226,0,0,0,0-2.315l-7.533-4.377a4.388,4.388,0,0,0-3.984,0Z" transform="translate(-12726.637 -7885.015)" fill="#4d4d4d"/>
        </g>
        <g id="Group_144" data-name="Group 144" transform="translate(124.857 35.005)">
          <path id="Path_545" data-name="Path 545" d="M12885.691,7799.284c-1.1.638-1.109,1.672-.025,2.3l7.492,4.354a4.391,4.391,0,0,0,3.973-.007l1.363-.787c4.5-2.6,4.527-6.843.064-9.436l-1.354-.787a4.383,4.383,0,0,0-3.959,0Z" transform="translate(-12884.858 -7794.45)" fill="#cd1212"/>
        </g>
        <g id="Group_145" data-name="Group 145" transform="translate(108.63 44.564)">
          <path id="Path_546" data-name="Path 546" d="M12806.8,7845.786a1.221,1.221,0,0,0-.014,2.309l7.533,4.376a4.413,4.413,0,0,0,4,.008l7.6-4.384a1.226,1.226,0,0,0,0-2.316l-7.533-4.376a4.388,4.388,0,0,0-3.984,0Z" transform="translate(-12805.968 -7840.924)" fill="#4d4d4d"/>
        </g>
        <g id="Group_146" data-name="Group 146" transform="translate(93.038 35.503)">
          <path id="Path_547" data-name="Path 547" d="M12731,7801.737a1.219,1.219,0,0,0-.014,2.308l7.545,4.384a4.394,4.394,0,0,0,3.984,0l7.594-4.384a1.219,1.219,0,0,0,.012-2.308l-7.543-4.385a4.394,4.394,0,0,0-3.984,0Z" transform="translate(-12730.166 -7796.875)" fill="#4d4d4d"/>
        </g>
        <g id="Group_147" data-name="Group 147" transform="translate(61.328)">
          <path id="Path_548" data-name="Path 548" d="M12576.818,7626.979a1.2,1.2,0,0,0-.012,2.278l7.4,4.3a4.336,4.336,0,0,0,3.934,0l7.477-4.317a1.206,1.206,0,0,0,.014-2.278l-1.342-.779c-4.41-2.562-11.67-2.556-16.121.016Z" transform="translate(-12575.998 -7624.267)" fill="#4d4d4d"/>
        </g>
      </g>
      <g id="Group_149" data-name="Group 149" transform="translate(75.279 40.055)">
        <path id="Path_549" data-name="Path 549" d="M12522.164,7695.7l.486-.283-.52-.3-.379.219a.734.734,0,0,1-.342.115.619.619,0,0,1-.322-.1l-1.666-.961.729-.422-.508-.293-.727.422-.746-.432-.625.362.748.432-.354.205.508.293.354-.206,1.664.962A1.592,1.592,0,0,0,12522.164,7695.7Z" transform="translate(-12473.577 -7680.785)" fill="#e9e5e3"/>
        <path id="Path_550" data-name="Path 550" d="M12549.271,7675.374l-.645.374.412.943-1.666-.215-.7.406,2.492.321.516,1.416.645-.375-.414-.942,1.666.215.7-.406-2.488-.319Z" transform="translate(-12496.714 -7666.252)" fill="#e9e5e3"/>
        <path id="Path_551" data-name="Path 551" d="M12534.023,7686.662a3.139,3.139,0,0,0,1.529.413,2.712,2.712,0,0,0,1.441-.33.978.978,0,0,0,.453-.454.584.584,0,0,0-.027-.5l.564.325.623-.362-3.008-1.737-.625.362.537.31a2.75,2.75,0,0,0-.84,0,2.15,2.15,0,0,0-.781.268c-.4.233-.6.512-.576.833S12533.568,7686.4,12534.023,7686.662Zm.539-1.473a1.773,1.773,0,0,1,.91-.214,2.013,2.013,0,0,1,1,.27c.311.179.467.374.471.584a.6.6,0,0,1-.361.528,1.76,1.76,0,0,1-.918.209,2.047,2.047,0,0,1-1.014-.274q-.463-.268-.463-.578A.618.618,0,0,1,12534.563,7685.189Z" transform="translate(-12486.103 -7673.118)" fill="#e9e5e3"/>
        <path id="Path_552" data-name="Path 552" d="M12480.939,7721.775l-.371-.215-.73.423-.744-.43-.393.228.746.431-.73.423.373.216.729-.424.744.43.393-.229-.744-.429Z" transform="translate(-12442.723 -7702.934)" fill="#e9e5e3"/>
        <path id="Path_553" data-name="Path 553" d="M12450.249,7727.607a2.215,2.215,0,0,0-1.137.287.984.984,0,0,0-.443.446.562.562,0,0,0,.029.5,2.381,2.381,0,0,0-.85-.032,2.057,2.057,0,0,0-.752.253c-.422.245-.559.52-.416.825l-.457-.264-.594.346,2.893,1.669.594-.345-1.617-.934c-.258-.149-.393-.3-.4-.458s.1-.3.322-.427a1.385,1.385,0,0,1,.732-.187,1.655,1.655,0,0,1,.791.232l1.615.934.588-.342-1.615-.934c-.26-.15-.395-.3-.4-.457s.1-.295.318-.426a1.4,1.4,0,0,1,.734-.187,1.634,1.634,0,0,1,.787.232l1.617.934.6-.346-1.707-.984A2.411,2.411,0,0,0,12450.249,7727.607Z" transform="translate(-12416.454 -7707.742)" fill="#e9e5e3"/>
        <path id="Path_554" data-name="Path 554" d="M12611.535,7646.907a.979.979,0,0,0,.588-.779c.01-.3-.187-.562-.592-.8a2.831,2.831,0,0,0-2.7-.009.957.957,0,0,0-.58.771c0,.293.2.557.6.791a2.67,2.67,0,0,0,1.357.354A2.562,2.562,0,0,0,12611.535,7646.907Zm-2.566-.856a.511.511,0,0,1,.316-.458,1.536,1.536,0,0,1,.795-.187,1.792,1.792,0,0,1,.895.248c.283.165.426.34.426.522a.541.541,0,0,1-.322.466,1.477,1.477,0,0,1-.783.181,1.828,1.828,0,0,1-.883-.259C12609.127,7646.4,12608.98,7646.229,12608.969,7646.051Z" transform="translate(-12545.631 -7642.115)" fill="#e9e5e3"/>
        <path id="Path_555" data-name="Path 555" d="M12625.828,7632.108l.189.108-.311.18.443.257.311-.18,2.193,1.265.545-.317-2.193-1.265.488-.283-.445-.256-.486.282-.187-.108c-.152-.088-.225-.17-.221-.245s.086-.16.252-.256l-.453-.263c-.344.2-.525.386-.547.56S12625.525,7631.934,12625.828,7632.108Z" transform="translate(-12559.251 -7631.027)" fill="#e9e5e3"/>
        <path id="Path_556" data-name="Path 556" d="M12618.156,7636.568l.186.107-.311.18.445.257.311-.181,2.191,1.266.545-.317-2.191-1.265.486-.283-.445-.256-.484.282-.187-.108c-.154-.088-.227-.17-.223-.244s.09-.161.252-.257l-.453-.262c-.344.2-.525.385-.547.558S12617.852,7636.393,12618.156,7636.568Z" transform="translate(-12553.155 -7634.57)" fill="#e9e5e3"/>
        <path id="Path_557" data-name="Path 557" d="M12455.992,7801.6l-2.871,1.668.572.33,2.2-1.28,2.051,3.192.746-.434-2.191-3.182Z" transform="translate(-12422.404 -7766.512)" fill="#e9e5e3"/>
        <path id="Path_558" data-name="Path 558" d="M12536.384,7761.764a.575.575,0,0,0-.115.547,1.018,1.018,0,0,0,.5.517,2.525,2.525,0,0,0,1.408.314,3.211,3.211,0,0,0,1.475-.435,1.309,1.309,0,0,0,.746-.856c.041-.308-.141-.579-.549-.814a2.208,2.208,0,0,0-.889-.284,2.65,2.65,0,0,0-.955.071.584.584,0,0,0,.061-.489.9.9,0,0,0-.422-.44,2.276,2.276,0,0,0-1.217-.271,2.918,2.918,0,0,0-1.4.421c-.455.264-.7.534-.719.809a.752.752,0,0,0,.473.7A2.241,2.241,0,0,0,12536.384,7761.764Zm1.953-.551a1.444,1.444,0,0,1,.809.191c.242.14.361.3.352.476s-.148.345-.42.5a1.793,1.793,0,0,1-.867.248,1.536,1.536,0,0,1-.832-.2c-.248-.144-.355-.3-.326-.474a.819.819,0,0,1,.445-.489A1.832,1.832,0,0,1,12538.337,7761.213Zm-2.732-.843a1.624,1.624,0,0,1,.75-.229,1.276,1.276,0,0,1,.705.167c.211.122.309.265.289.423a.644.644,0,0,1-.369.438,1.624,1.624,0,0,1-.744.215,1.323,1.323,0,0,1-.73-.169c-.213-.124-.311-.26-.291-.411S12535.364,7760.51,12535.6,7760.371Z" transform="translate(-12486.893 -7733.172)" fill="#e9e5e3"/>
        <path id="Path_559" data-name="Path 559" d="M12619.461,7714.735a1.542,1.542,0,0,1-1.4.1l-.625.364a2.7,2.7,0,0,0,1.232.261,2.631,2.631,0,0,0,1.32-.376c.545-.316.738-.64.584-.973a3.362,3.362,0,0,0-1.375-1.16,5.648,5.648,0,0,0-2.031-.776,2.635,2.635,0,0,0-1.7.357c-.447.26-.668.541-.664.841s.23.578.672.833a2.675,2.675,0,0,0,1.42.367,2.757,2.757,0,0,0,1.357-.366,1.371,1.371,0,0,0,.453-.391.463.463,0,0,0,.086-.414,2.372,2.372,0,0,1,.949.773C12619.838,7714.386,12619.744,7714.571,12619.461,7714.735Zm-1.7-.9a1.539,1.539,0,0,1-.84.212,1.711,1.711,0,0,1-.822-.229c-.25-.144-.381-.3-.395-.479s.1-.336.355-.481a1.551,1.551,0,0,1,.822-.21,1.705,1.705,0,0,1,.842.232c.264.152.4.312.412.477S12618.027,7713.679,12617.764,7713.832Z" transform="translate(-12550.836 -7695.47)" fill="#e9e5e3"/>
        <path id="Path_560" data-name="Path 560" d="M12378.407,7849.913l-.711.413.453,1.034-1.828-.234-.768.446,2.738.353.564,1.555.709-.411-.455-1.036,1.83.236.77-.447-2.732-.35Z" transform="translate(-12360.793 -7804.891)" fill="#e9e5e3"/>
        <path id="Path_561" data-name="Path 561" d="M12690.826,7673.706a1.809,1.809,0,0,0,.928.243,1.79,1.79,0,0,0,.9-.234c.268-.155.4-.33.4-.523s-.139-.373-.422-.537a1.858,1.858,0,0,0-1.822,0q-.4.231-.4.521C12690.4,7673.364,12690.541,7673.542,12690.826,7673.706Zm.4-.816a.845.845,0,0,1,.883.074c.338.2.383.365.131.512a.839.839,0,0,1-.879-.075C12691.021,7673.206,12690.975,7673.034,12691.225,7672.889Z" transform="translate(-12610.885 -7663.901)" fill="#e9e5e3"/>
        <path id="Path_562" data-name="Path 562" d="M12714.316,7673.88a1.864,1.864,0,0,0-1.82,0c-.266.153-.4.327-.4.52s.135.372.418.535a1.8,1.8,0,0,0,.93.241,1.752,1.752,0,0,0,.9-.233c.266-.153.4-.326.4-.52S12714.6,7674.044,12714.316,7673.88Zm-.4.819a.839.839,0,0,1-.877-.074q-.5-.29-.129-.508a.84.84,0,0,1,.879.072C12714.121,7674.384,12714.164,7674.553,12713.912,7674.7Z" transform="translate(-12628.108 -7664.875)" fill="#e9e5e3"/>
        <path id="Path_563" data-name="Path 563" d="M12704.148,7670.4l-1.795-3.792-.668.387,1.795,3.792Z" transform="translate(-12619.843 -7659.292)" fill="#e9e5e3"/>
        <path id="Path_564" data-name="Path 564" d="M12546.049,7850.607l-.594-.343-.553.322-2.812-1.625-.824.479.889,2.832.516.3,2.158-1.254.91.526.67-.389-.912-.526Zm-3.189,1.166-.713-2.038,2.117,1.223Z" transform="translate(-12492.419 -7804.136)" fill="#e9e5e3"/>
        <path id="Path_565" data-name="Path 565" d="M12618.45,7805.728a3.163,3.163,0,0,0-1.271-.388,2.413,2.413,0,0,0-.785.046,2.575,2.575,0,0,0-.744.281,1.353,1.353,0,0,0-.467.4.492.492,0,0,0-.09.379l-1.2-.688,2-1.16-.6-.347-2.619,1.523,2.521,1.458.645-.374a.447.447,0,0,1-.111-.4.68.68,0,0,1,.348-.372,1.631,1.631,0,0,1,.861-.233,1.814,1.814,0,0,1,.875.256c.285.166.443.339.475.521s-.08.346-.336.494a1.9,1.9,0,0,1-.771.258,1.717,1.717,0,0,1-.74-.088l-.66.383a2.878,2.878,0,0,0,1.324.222,3.13,3.13,0,0,0,1.41-.441q.688-.4.65-.869C12619.146,7806.278,12618.9,7805.99,12618.45,7805.728Z" transform="translate(-12549.143 -7768.622)" fill="#e9e5e3"/>
        <path id="Path_566" data-name="Path 566" d="M12695.846,7762.875a1.454,1.454,0,0,1,1.275-.1l.625-.363a2.777,2.777,0,0,0-1.2-.227,2.566,2.566,0,0,0-1.264.358q-1.538.894.658,2.16a8.075,8.075,0,0,0,1.021.507,4.33,4.33,0,0,0,.963.266,2.769,2.769,0,0,0,1.891-.377c.451-.262.662-.543.643-.845s-.252-.581-.689-.833a2.818,2.818,0,0,0-1.41-.386,2.585,2.585,0,0,0-1.352.338,1.368,1.368,0,0,0-.5.457.515.515,0,0,0-.047.5,2.231,2.231,0,0,1-.955-.836Q12695.376,7763.148,12695.846,7762.875Zm1.615.9a1.518,1.518,0,0,1,.842-.208,1.812,1.812,0,0,1,.855.248c.266.151.4.315.412.49s-.117.34-.383.5a1.692,1.692,0,0,1-.875.228,1.792,1.792,0,0,1-.895-.242c-.275-.159-.4-.33-.379-.514A.729.729,0,0,1,12697.461,7763.779Z" transform="translate(-12614.255 -7735.207)" fill="#e9e5e3"/>
        <path id="Path_567" data-name="Path 567" d="M12454.906,7895.775l.574.332,2.447-1.423-.574-.332Z" transform="translate(-12423.822 -7840.19)" fill="#e9e5e3"/>
        <path id="Path_568" data-name="Path 568" d="M12369.867,7777.045l-1.6-.925c-.256-.147-.389-.3-.4-.454s.1-.295.32-.421a1.385,1.385,0,0,1,.729-.187,1.609,1.609,0,0,1,.779.23l1.6.926.586-.341-1.6-.925c-.256-.147-.389-.3-.4-.452s.1-.292.318-.421a1.378,1.378,0,0,1,.725-.186,1.617,1.617,0,0,1,.783.23l1.6.925.588-.342-1.689-.977a2.42,2.42,0,0,0-1.217-.338,2.185,2.185,0,0,0-1.125.284.987.987,0,0,0-.441.442.548.548,0,0,0,.031.5,2.359,2.359,0,0,0-.846-.032,2.047,2.047,0,0,0-.744.252c-.418.242-.555.516-.412.816l-.451-.261-.59.343,2.865,1.654Z" transform="translate(-12353.531 -7744.107)" fill="#e9e5e3"/>
        <path id="Path_569" data-name="Path 569" d="M12400.1,7768.7l.5.288,1.719-1-.5-.287Z" transform="translate(-12380.288 -7739.592)" fill="#e9e5e3"/>
        <path id="Path_570" data-name="Path 570" d="M12759.688,7740.072l1.1-.638-.559-.323-1.1.639-1.123-.647-.588.342,1.121.647-1.1.638.561.323,1.1-.638,1.121.647.588-.342Z" transform="translate(-12664.111 -7716.873)" fill="#e9e5e3"/>
        <path id="Path_571" data-name="Path 571" d="M12773.655,7726.918l-4.664-4.413-.615.358,4.67,4.41Z" transform="translate(-12672.815 -7703.689)" fill="#e9e5e3"/>
        <path id="Path_572" data-name="Path 572" d="M12789.781,7723.3l.527.3,2.246-1.3-.527-.3Z" transform="translate(-12689.817 -7703.285)" fill="#e9e5e3"/>
        <path id="Path_573" data-name="Path 573" d="M12613.178,7895.625l.625.361.553-.321,3.633,2.1.686-.4-4.258-2.459Z" transform="translate(-12549.54 -7840.629)" fill="#e9e5e3"/>
        <path id="Path_574" data-name="Path 574" d="M12697.072,7853.477c0-.062.012-.177.027-.344s.029-.3.031-.387.008-.213,0-.371a1.34,1.34,0,0,0-.045-.393c-.031-.1-.074-.221-.125-.347a1.382,1.382,0,0,0-.6-.618,2.5,2.5,0,0,0-1.3-.327,2.718,2.718,0,0,0-1.346.371c-.418.243-.635.511-.654.8s.2.571.641.842l.654-.382a.719.719,0,0,1-.4-.468c-.021-.16.086-.311.322-.447a1.353,1.353,0,0,1,1.443.021.921.921,0,0,1,.453.545,2.556,2.556,0,0,1,.088.348,1.919,1.919,0,0,1,.016.414q-.015.255-.029.422c-.012.11-.035.27-.061.476s-.045.361-.055.471l.5.286,2.9-1.683-.57-.329Z" transform="translate(-12612.991 -7805.509)" fill="#e9e5e3"/>
        <path id="Path_575" data-name="Path 575" d="M12778.9,7806.5a2.448,2.448,0,0,0-.971-.332,2.262,2.262,0,0,0-.939.091l-.025-.014a.5.5,0,0,0,.117-.478.846.846,0,0,0-.439-.481,2.163,2.163,0,0,0-1.174-.267,2.7,2.7,0,0,0-1.293.379,1.271,1.271,0,0,0-.7.764q-.076.407.445.751l.662-.384a.438.438,0,0,1-.205-.373c.012-.138.127-.271.352-.4a1.456,1.456,0,0,1,.691-.2,1.209,1.209,0,0,1,.646.158q.639.369-.338.952l-.16.094.563.325.156-.091a2.656,2.656,0,0,1,.992-.37,1.382,1.382,0,0,1,.859.19c.213.122.322.261.322.414s-.119.3-.363.445a1.664,1.664,0,0,1-.791.227,1.577,1.577,0,0,1-.766-.158l-.654.381a2.6,2.6,0,0,0,1.4.295,3.149,3.149,0,0,0,1.4-.428c.436-.253.66-.516.68-.789A.757.757,0,0,0,12778.9,7806.5Z" transform="translate(-12676.86 -7769.233)" fill="#e9e5e3"/>
        <path id="Path_576" data-name="Path 576" d="M12855.723,7767.544l3.324,3.141.436-.253-3.318-3.144Z" transform="translate(-12742.196 -7739.261)" fill="#e9e5e3"/>
        <path id="Path_577" data-name="Path 577" d="M12848.666,7780.377l-1.2-.7c-.2-.112-.293-.226-.3-.343s.074-.221.242-.318a1.037,1.037,0,0,1,.543-.139,1.222,1.222,0,0,1,.59.174l1.205.7.439-.255-1.273-.734a1.8,1.8,0,0,0-.908-.255,1.608,1.608,0,0,0-.842.207c-.314.183-.414.387-.309.615l-.342-.2-.443.257,2.158,1.246Z" transform="translate(-12734.526 -7748.172)" fill="#e9e5e3"/>
        <path id="Path_578" data-name="Path 578" d="M12839.316,7786.622c.008-.243-.154-.46-.486-.652a2.177,2.177,0,0,0-1.119-.282,2.144,2.144,0,0,0-1.084.276.784.784,0,0,0-.475.63c0,.24.164.456.494.647a2.2,2.2,0,0,0,1.111.289,2.087,2.087,0,0,0,1.078-.272A.8.8,0,0,0,12839.316,7786.622Zm-.855.42a1.2,1.2,0,0,1-.641.147,1.5,1.5,0,0,1-.723-.211c-.232-.135-.354-.273-.361-.419a.417.417,0,0,1,.258-.374,1.251,1.251,0,0,1,.652-.154,1.445,1.445,0,0,1,.729.2c.232.133.35.275.35.427A.437.437,0,0,1,12838.461,7787.042Z" transform="translate(-12726.651 -7753.876)" fill="#e9e5e3"/>
        <path id="Path_579" data-name="Path 579" d="M12872.54,7766.891c.146.179.09.344-.168.493a1.087,1.087,0,0,1-.627.137,1.549,1.549,0,0,1-.707-.219c-.232-.133-.359-.271-.381-.407s.059-.258.24-.363a1.068,1.068,0,0,1,.848-.1l.479-.278a2.121,2.121,0,0,0-.873-.105,2,2,0,0,0-.83.267c-.309.179-.457.385-.451.616s.182.442.516.637a2.227,2.227,0,0,0,1.1.3,2.033,2.033,0,0,0,1.064-.265.844.844,0,0,0,.445-.481.53.53,0,0,0-.174-.506Z" transform="translate(-12753.592 -7738.27)" fill="#e9e5e3"/>
        <path id="Path_580" data-name="Path 580" d="M12693.5,7938.306a5.149,5.149,0,0,0-.787-.541,6.554,6.554,0,0,0-.934-.453,4.633,4.633,0,0,0-.926-.251,2.816,2.816,0,0,0-.949.007,2.76,2.76,0,0,0-.914.342,1.472,1.472,0,0,0-.588.53.569.569,0,0,0-.008.551,1.733,1.733,0,0,0,.434.535,5.248,5.248,0,0,0,.785.541,6.806,6.806,0,0,0,.938.453,4.827,4.827,0,0,0,.928.252,2.758,2.758,0,0,0,1.869-.346,1.493,1.493,0,0,0,.588-.531.578.578,0,0,0,0-.553A1.74,1.74,0,0,0,12693.5,7938.306Zm-.775,1.261a1.521,1.521,0,0,1-1.225.148,5.369,5.369,0,0,1-1.219-.538,3.5,3.5,0,0,1-.922-.7.369.369,0,0,1-.1-.365.727.727,0,0,1,.35-.345,1.52,1.52,0,0,1,1.223-.148,5.361,5.361,0,0,1,1.213.532,3.574,3.574,0,0,1,.93.7C12693.186,7939.109,12693.1,7939.346,12692.721,7939.567Z" transform="translate(-12609.229 -7874.085)" fill="#e9e5e3"/>
        <path id="Path_581" data-name="Path 581" d="M12774.993,7893.164a1.115,1.115,0,0,0-1.037,0,.344.344,0,0,0-.213.3.369.369,0,0,0,.221.3,1.023,1.023,0,0,0,.512.125.982.982,0,0,0,.518-.124.368.368,0,0,0,.219-.3A.356.356,0,0,0,12774.993,7893.164Z" transform="translate(-12677.079 -7839.144)" fill="#e9e5e3"/>
        <path id="Path_582" data-name="Path 582" d="M12847.809,7847.667l-3.17,1.841.605.35,3.168-1.841Z" transform="translate(-12733.392 -7803.107)" fill="#e9e5e3"/>
        <path id="Path_583" data-name="Path 583" d="M12851.252,7853.327l.6.35,3.168-1.843-.6-.35Z" transform="translate(-12738.646 -7806.139)" fill="#e9e5e3"/>
        <path id="Path_584" data-name="Path 584" d="M12932.346,7814.765l-1.381.8-1.172-.677,1.227-.714-.473-.271-1.227.713-1.129-.652,1.379-.8-.479-.275-1.963,1.142,3.73,2.153,1.963-1.142Z" transform="translate(-12798.915 -7775.479)" fill="#e9e5e3"/>
        <path id="Path_585" data-name="Path 585" d="M12916.332,7824.181q.275.489-.389.878a2.339,2.339,0,0,1-1.246.3,2.722,2.722,0,0,1-1.32-.367c-.4-.234-.619-.488-.635-.762s.146-.516.506-.724a2.136,2.136,0,0,1,1.512-.229l.7-.407a3.927,3.927,0,0,0-1.471-.1,3.362,3.362,0,0,0-1.3.418,1.229,1.229,0,0,0-.75,1.061c.008.411.285.776.838,1.095a3.74,3.74,0,0,0,1.893.481,3.555,3.555,0,0,0,1.824-.439,1.522,1.522,0,0,0,.721-.754.85.85,0,0,0-.184-.849Z" transform="translate(-12786.85 -7783.303)" fill="#e9e5e3"/>
        <path id="Path_586" data-name="Path 586" d="M12540.3,7941.8l-.7-.4-1.359.79-1.389-.8-.73.425,1.389.8-1.361.791.7.4,1.359-.791,1.387.8.73-.425-1.387-.8Z" transform="translate(-12488.334 -7877.551)" fill="#e9e5e3"/>
        <path id="Path_587" data-name="Path 587" d="M12304.961,7818.269a.3.3,0,0,0,0-.563,1.072,1.072,0,0,0-.975,0c-.268.155-.264.407.006.563A1.076,1.076,0,0,0,12304.961,7818.269Z" transform="translate(-12303.786 -7779.215)" fill="#e9e5e3"/>
        <path id="Path_588" data-name="Path 588" d="M12317.213,7824.78a1.07,1.07,0,0,0-.974,0c-.267.155-.267.406,0,.563a1.07,1.07,0,0,0,.971,0A.3.3,0,0,0,12317.213,7824.78Z" transform="translate(-12313.52 -7784.835)" fill="#e9e5e3"/>
        <path id="Path_589" data-name="Path 589" d="M12307.589,7817.9l-3.223,1.873.532.308,3.224-1.873Z" transform="translate(-12304.247 -7779.461)" fill="#e9e5e3"/>
      </g>
    </g>
    <g id="Group_151" data-name="Group 151" transform="translate(11961.907 6493)">
      <path id="Path_590" data-name="Path 590" d="M12191.828,6677.013h-17.7l-47.013,38.052.117-38.052h-15.053A47.183,47.183,0,0,1,12065,6629.83v-79.646a47.184,47.184,0,0,1,47.183-47.184h79.646a47.184,47.184,0,0,1,47.184,47.184v79.646A47.184,47.184,0,0,1,12191.828,6677.013Z" transform="translate(-12062.943 -6500.943)" fill="#fff"/>
      <path id="Path_591" data-name="Path 591" d="M12117.1,6711.444l.127-40.318h-12.991a49.239,49.239,0,0,1-49.239-49.239V6542.24a49.238,49.238,0,0,1,49.239-49.239h79.646a49.239,49.239,0,0,1,49.241,49.239v79.646a49.241,49.241,0,0,1-49.241,49.239h-16.972Zm-12.864-214.329a45.125,45.125,0,0,0-45.125,45.125v79.646a45.128,45.128,0,0,0,45.125,45.126h17.117l-.111,35.786,44.214-35.786h18.427a45.128,45.128,0,0,0,45.127-45.126V6542.24a45.125,45.125,0,0,0-45.127-45.125Z" transform="translate(-12055 -6493)" fill="#1d1d1b"/>
    </g>
    <text id="_136328" data-name="136328" transform="translate(11997.532 6549.762)" font-size="34" font-family="Helvetica"><tspan x="0" y="0">136328</tspan></text>
    <text id="_136328-2" data-name="136328" transform="translate(11997.498 6591.559)" font-size="34" font-family="Helvetica"><tspan x="0" y="0">136328</tspan></text>
    <text id="_136328-3" data-name="136328" transform="translate(11997.498 6631.667)" font-size="34" font-family="Helvetica"><tspan x="0" y="0">136328</tspan></text>
  </g>
</svg>
