<?xml version="1.0" standalone="no"?>
<!DOCTYPE svg PUBLIC "-//W3C//DTD SVG 20010904//EN"
 "http://www.w3.org/TR/2001/REC-SVG-20010904/DTD/svg10.dtd">
<svg version="1.0" xmlns="http://www.w3.org/2000/svg"
 width="700.000000pt" height="700.000000pt" viewBox="0 0 700.000000 700.000000"
 preserveAspectRatio="xMidYMid meet">
<metadata>
Created by potrace 1.14, written by Peter Selinger 2001-2017
</metadata>
<g transform="translate(0.000000,700.000000) scale(0.100000,-0.100000)"
fill="#000000" stroke="none">
<path d="M3325 6990 c-112 -13 -221 -36 -319 -68 l-84 -27 -69 17 c-37 9 -121
25 -186 34 -164 23 -489 16 -630 -15 -305 -65 -534 -187 -742 -396 -347 -346
-540 -874 -595 -1619 l-10 -138 -69 -74 c-91 -95 -180 -207 -254 -319 -204
-311 -251 -597 -136 -831 151 -306 637 -538 1144 -546 149 -2 167 2 293 72 47
27 88 47 90 45 2 -2 -3 -27 -11 -57 -59 -203 -105 -513 -133 -893 l-7 -89 -91
-101 c-481 -526 -627 -978 -434 -1347 138 -266 507 -490 961 -583 163 -33 437
-53 515 -37 67 14 10 -15 847 432 1772 947 2784 1513 3032 1696 352 261 555
629 540 984 -9 218 -94 389 -239 481 -29 19 -57 39 -63 45 -20 23 -1121 823
-1182 858 -204 120 -500 180 -761 156 -64 -6 -135 -13 -157 -16 -36 -5 -27 2
82 69 390 239 589 505 635 848 28 215 -53 422 -203 516 -61 38 -287 200 -763
547 -143 104 -284 204 -315 223 -174 105 -453 159 -686 133z"/>
</g>
</svg>
